<?xml version="1.0" encoding="utf-8" standalone="no"?>
<svg xmlns="http://www.w3.org/2000/svg" xmlns:xlink="http://www.w3.org/1999/xlink" height="790px" style="width:585px;height:790px;" version="1.1" viewBox="0 0 585 790" width="585px" zoomAndPan="magnify">
<defs>
<filter height="300%" id="f14vkcw5hz8blg" width="300%" x="-1" y="-1">
<feGaussianBlur result="blurOut" stdDeviation="2.0"/>
<feColorMatrix in="blurOut" result="blurOut2" type="matrix" values="0 0 0 0 0 0 0 0 0 0 0 0 0 0 0 0 0 0 .4 0"/>
<feOffset dx="4.0" dy="4.0" in="blurOut2" result="blurOut3"/>
<feBlend in="SourceGraphic" in2="blurOut3" mode="normal"/>
</filter>
</defs>
<g>
<rect fill="#FFFFFF" filter="url(#f14vkcw5hz8blg)" height="90.8867" style="stroke: #000000; stroke-width: 2.0;" width="546.5" x="17" y="128.1094"/>
<rect fill="#FFFFFF" height="44.2656" style="stroke: none; stroke-width: 1.0;" width="546.5" x="17" y="174.7305"/>
<rect fill="#FFFFFF" filter="url(#f14vkcw5hz8blg)" height="46.6211" style="stroke: #000000; stroke-width: 2.0;" width="546.5" x="17" y="616.0332"/>
<line style="stroke: #A80036; stroke-width: 1.0;" x1="50" x2="50" y1="38.4883" y2="669.6543"/>
<line style="stroke: #A80036; stroke-width: 1.0; stroke-dasharray: 1.0,4.0;" x1="50" x2="50" y1="669.6543" y2="710.6094"/>
<line style="stroke: #A80036; stroke-width: 1.0;" x1="50" x2="50" y1="710.6094" y2="749.9199"/>
<line style="stroke: #A80036; stroke-width: 1.0;" x1="486.5" x2="486.5" y1="38.4883" y2="669.6543"/>
<line style="stroke: #A80036; stroke-width: 1.0; stroke-dasharray: 1.0,4.0;" x1="486.5" x2="486.5" y1="669.6543" y2="710.6094"/>
<line style="stroke: #A80036; stroke-width: 1.0;" x1="486.5" x2="486.5" y1="710.6094" y2="749.9199"/>
<rect fill="#FEFECE" filter="url(#f14vkcw5hz8blg)" height="30.4883" style="stroke: #A80036; stroke-width: 1.5;" width="42" x="27" y="3"/>
<text fill="#000000" font-family="sans-serif" font-size="14" lengthAdjust="spacingAndGlyphs" textLength="28" x="34" y="23.5352">App</text>
<rect fill="#FEFECE" filter="url(#f14vkcw5hz8blg)" height="30.4883" style="stroke: #A80036; stroke-width: 1.5;" width="42" x="27" y="748.9199"/>
<text fill="#000000" font-family="sans-serif" font-size="14" lengthAdjust="spacingAndGlyphs" textLength="28" x="34" y="769.4551">App</text>
<rect fill="#FEFECE" filter="url(#f14vkcw5hz8blg)" height="30.4883" style="stroke: #A80036; stroke-width: 1.5;" width="129" x="420.5" y="3"/>
<text fill="#000000" font-family="sans-serif" font-size="14" lengthAdjust="spacingAndGlyphs" textLength="115" x="427.5" y="23.5352">ContentManager</text>
<rect fill="#FEFECE" filter="url(#f14vkcw5hz8blg)" height="30.4883" style="stroke: #A80036; stroke-width: 1.5;" width="129" x="420.5" y="748.9199"/>
<text fill="#000000" font-family="sans-serif" font-size="14" lengthAdjust="spacingAndGlyphs" textLength="115" x="427.5" y="769.4551">ContentManager</text>
<rect fill="#EEEEEE" filter="url(#f14vkcw5hz8blg)" height="3" style="stroke: #EEEEEE; stroke-width: 1.0;" width="570.5" x="3" y="69.1436"/>
<line style="stroke: #000000; stroke-width: 1.0;" x1="3" x2="573.5" y1="69.1436" y2="69.1436"/>
<line style="stroke: #000000; stroke-width: 1.0;" x1="3" x2="573.5" y1="72.1436" y2="72.1436"/>
<rect fill="#EEEEEE" filter="url(#f14vkcw5hz8blg)" height="23.3105" style="stroke: #000000; stroke-width: 2.0;" width="113" x="231.75" y="58.4883"/>
<text fill="#000000" font-family="sans-serif" font-size="13" font-weight="bold" lengthAdjust="spacingAndGlyphs" textLength="95" x="237.75" y="75.0566">Add New Item</text>
<polygon fill="#A80036" points="475,109.1094,485,113.1094,475,117.1094,479,113.1094" style="stroke: #A80036; stroke-width: 1.0;"/>
<line style="stroke: #A80036; stroke-width: 1.0;" x1="50" x2="481" y1="113.1094" y2="113.1094"/>
<text fill="#000000" font-family="sans-serif" font-size="13" lengthAdjust="spacingAndGlyphs" textLength="96" x="57" y="108.3672">addItem(id, url)</text>
<path d="M17,128.1094 L79,128.1094 L79,135.1094 L69,145.1094 L17,145.1094 L17,128.1094 " fill="#EEEEEE" style="stroke: #000000; stroke-width: 1.0;"/>
<rect fill="none" height="90.8867" style="stroke: #000000; stroke-width: 2.0;" width="546.5" x="17" y="128.1094"/>
<text fill="#000000" font-family="sans-serif" font-size="13" font-weight="bold" lengthAdjust="spacingAndGlyphs" textLength="17" x="32" y="141.6777">alt</text>
<text fill="#000000" font-family="sans-serif" font-size="11" font-weight="bold" lengthAdjust="spacingAndGlyphs" textLength="95" x="94" y="140.7441">[successful case]</text>
<polygon fill="#A80036" points="61,162.7305,51,166.7305,61,170.7305,57,166.7305" style="stroke: #A80036; stroke-width: 1.0;"/>
<line style="stroke: #A80036; stroke-width: 1.0; stroke-dasharray: 2.0,2.0;" x1="55" x2="486" y1="166.7305" y2="166.7305"/>
<text fill="#000000" font-family="sans-serif" font-size="13" lengthAdjust="spacingAndGlyphs" textLength="55" x="67" y="161.9883">DTGItem</text>
<line style="stroke: #000000; stroke-width: 1.0; stroke-dasharray: 2.0,2.0;" x1="17" x2="563.5" y1="175.7305" y2="175.7305"/>
<text fill="#000000" font-family="sans-serif" font-size="11" font-weight="bold" lengthAdjust="spacingAndGlyphs" textLength="69" x="22" y="186.3652">[item exists]</text>
<polygon fill="#A80036" points="61,206.9961,51,210.9961,61,214.9961,57,210.9961" style="stroke: #A80036; stroke-width: 1.0;"/>
<line style="stroke: #A80036; stroke-width: 1.0; stroke-dasharray: 2.0,2.0;" x1="55" x2="486" y1="210.9961" y2="210.9961"/>
<text fill="#000000" font-family="sans-serif" font-size="13" lengthAdjust="spacingAndGlyphs" textLength="16" x="67" y="206.2539">nil</text>
<polygon fill="#A80036" points="61,243.3066,51,247.3066,61,251.3066,57,247.3066" style="stroke: #A80036; stroke-width: 1.0;"/>
<line style="stroke: #A80036; stroke-width: 1.0;" x1="55" x2="486" y1="247.3066" y2="247.3066"/>
<text fill="#000000" font-family="sans-serif" font-size="13" lengthAdjust="spacingAndGlyphs" textLength="115" x="67" y="242.5645">state update (new)</text>
<rect fill="#EEEEEE" filter="url(#f14vkcw5hz8blg)" height="3" style="stroke: #EEEEEE; stroke-width: 1.0;" width="570.5" x="3" y="275.9619"/>
<line style="stroke: #000000; stroke-width: 1.0;" x1="3" x2="573.5" y1="275.9619" y2="275.9619"/>
<line style="stroke: #000000; stroke-width: 1.0;" x1="3" x2="573.5" y1="278.9619" y2="278.9619"/>
<rect fill="#EEEEEE" filter="url(#f14vkcw5hz8blg)" height="23.3105" style="stroke: #000000; stroke-width: 2.0;" width="118" x="229.25" y="265.3066"/>
<text fill="#000000" font-family="sans-serif" font-size="13" font-weight="bold" lengthAdjust="spacingAndGlyphs" textLength="100" x="235.25" y="281.875">Load Metadata</text>
<path d="M8,303.6172 L8,358.6172 L529,358.6172 L529,313.6172 L519,303.6172 L8,303.6172 " fill="#FBFB77" filter="url(#f14vkcw5hz8blg)" style="stroke: #A80036; stroke-width: 1.0;"/>
<path d="M519,303.6172 L519,313.6172 L529,313.6172 L519,303.6172 " fill="#FBFB77" style="stroke: #A80036; stroke-width: 1.0;"/>
<text fill="#000000" font-family="sans-serif" font-size="13" lengthAdjust="spacingAndGlyphs" textLength="272" x="122.25" y="321.1855">At this stage, DTG connects to the network</text>
<text fill="#000000" font-family="sans-serif" font-size="13" lengthAdjust="spacingAndGlyphs" textLength="276" x="122.25" y="336.4961">and downloads the HLS playlist as specified</text>
<text fill="#000000" font-family="sans-serif" font-size="13" lengthAdjust="spacingAndGlyphs" textLength="36" x="122.25" y="351.8066">in the</text>
<text fill="#000000" font-family="monospace" font-size="13" lengthAdjust="spacingAndGlyphs" textLength="56" x="162.25" y="351.4829">options</text>
<text fill="#000000" font-family="sans-serif" font-size="13" lengthAdjust="spacingAndGlyphs" textLength="43" x="222.25" y="351.8066">object.</text>
<polygon fill="#A80036" points="475,385.8594,485,389.8594,475,393.8594,479,389.8594" style="stroke: #A80036; stroke-width: 1.0;"/>
<line style="stroke: #A80036; stroke-width: 1.0;" x1="50" x2="481" y1="389.8594" y2="389.8594"/>
<text fill="#000000" font-family="sans-serif" font-size="13" lengthAdjust="spacingAndGlyphs" textLength="188" x="57" y="385.1172">loadItemMetadata(id, options)</text>
<path d="M8,402.8594 L8,442.8594 L529,442.8594 L529,412.8594 L519,402.8594 L8,402.8594 " fill="#FBFB77" filter="url(#f14vkcw5hz8blg)" style="stroke: #A80036; stroke-width: 1.0;"/>
<path d="M519,402.8594 L519,412.8594 L529,412.8594 L519,402.8594 " fill="#FBFB77" style="stroke: #A80036; stroke-width: 1.0;"/>
<text fill="#000000" font-family="sans-serif" font-size="13" lengthAdjust="spacingAndGlyphs" textLength="264" x="126.75" y="420.4277">There's no return value, and if the method</text>
<text fill="#000000" font-family="sans-serif" font-size="13" lengthAdjust="spacingAndGlyphs" textLength="271" x="126.75" y="435.7383">didn't throw the item is ready to download.</text>
<rect fill="#EEEEEE" filter="url(#f14vkcw5hz8blg)" height="3" style="stroke: #EEEEEE; stroke-width: 1.0;" width="570.5" x="3" y="473.1357"/>
<line style="stroke: #000000; stroke-width: 1.0;" x1="3" x2="573.5" y1="473.1357" y2="473.1357"/>
<line style="stroke: #000000; stroke-width: 1.0;" x1="3" x2="573.5" y1="476.1357" y2="476.1357"/>
<rect fill="#EEEEEE" filter="url(#f14vkcw5hz8blg)" height="23.3105" style="stroke: #000000; stroke-width: 2.0;" width="85" x="245.75" y="462.4805"/>
<text fill="#000000" font-family="sans-serif" font-size="13" font-weight="bold" lengthAdjust="spacingAndGlyphs" textLength="67" x="251.75" y="479.0488">Download</text>
<path d="M8,500.791 L8,540.791 L529,540.791 L529,510.791 L519,500.791 L8,500.791 " fill="#FBFB77" filter="url(#f14vkcw5hz8blg)" style="stroke: #A80036; stroke-width: 1.0;"/>
<path d="M519,500.791 L519,510.791 L529,510.791 L519,500.791 " fill="#FBFB77" style="stroke: #A80036; stroke-width: 1.0;"/>
<text fill="#000000" font-family="sans-serif" font-size="13" lengthAdjust="spacingAndGlyphs" textLength="208" x="155.75" y="518.3594">Start the downloader for the item</text>
<text fill="#000000" font-family="sans-serif" font-size="13" lengthAdjust="spacingAndGlyphs" textLength="213" x="155.75" y="533.6699">and begin background downloads</text>
<polygon fill="#A80036" points="475,567.7227,485,571.7227,475,575.7227,479,571.7227" style="stroke: #A80036; stroke-width: 1.0;"/>
<line style="stroke: #A80036; stroke-width: 1.0;" x1="50" x2="481" y1="571.7227" y2="571.7227"/>
<text fill="#000000" font-family="sans-serif" font-size="13" lengthAdjust="spacingAndGlyphs" textLength="77" x="57" y="566.9805">startItem(id)</text>
<polygon fill="#A80036" points="61,597.0332,51,601.0332,61,605.0332,57,601.0332" style="stroke: #A80036; stroke-width: 1.0;"/>
<line style="stroke: #A80036; stroke-width: 1.0;" x1="55" x2="486" y1="601.0332" y2="601.0332"/>
<text fill="#000000" font-family="sans-serif" font-size="13" lengthAdjust="spacingAndGlyphs" textLength="156" x="67" y="596.291">state update (inProgress)</text>
<path d="M17,616.0332 L91,616.0332 L91,623.0332 L81,633.0332 L17,633.0332 L17,616.0332 " fill="#EEEEEE" style="stroke: #000000; stroke-width: 1.0;"/>
<rect fill="none" height="46.6211" style="stroke: #000000; stroke-width: 2.0;" width="546.5" x="17" y="616.0332"/>
<text fill="#000000" font-family="sans-serif" font-size="13" font-weight="bold" lengthAdjust="spacingAndGlyphs" textLength="29" x="32" y="629.6016">loop</text>
<polygon fill="#A80036" points="61,650.6543,51,654.6543,61,658.6543,57,654.6543" style="stroke: #A80036; stroke-width: 1.0;"/>
<line style="stroke: #A80036; stroke-width: 1.0;" x1="55" x2="486" y1="654.6543" y2="654.6543"/>
<text fill="#000000" font-family="sans-serif" font-size="13" lengthAdjust="spacingAndGlyphs" textLength="413" x="67" y="649.9121">progress updates (id, totalBytesDownloaded, totalBytesEstimated)</text>
<text fill="#000000" font-family="sans-serif" font-size="11" lengthAdjust="spacingAndGlyphs" textLength="28" x="254.5" y="694.2891">Done</text>
<polygon fill="#A80036" points="61,727.9199,51,731.9199,61,735.9199,57,731.9199" style="stroke: #A80036; stroke-width: 1.0;"/>
<line style="stroke: #A80036; stroke-width: 1.0;" x1="55" x2="486" y1="731.9199" y2="731.9199"/>
<text fill="#000000" font-family="sans-serif" font-size="13" lengthAdjust="spacingAndGlyphs" textLength="156" x="67" y="727.1777">state update (completed)</text>
</g>
</svg>
