<?xml version="1.0" encoding="utf-8" standalone="no"?>
<svg xmlns="http://www.w3.org/2000/svg" xmlns:xlink="http://www.w3.org/1999/xlink" height="382px" style="width:657px;height:382px;" version="1.1" viewBox="0 0 657 382" width="657px" zoomAndPan="magnify">
<defs>
<filter height="300%" id="f15zd5f28zthfl" width="300%" x="-1" y="-1">
<feGaussianBlur result="blurOut" stdDeviation="2.0"/>
<feColorMatrix in="blurOut" result="blurOut2" type="matrix" values="0 0 0 0 0 0 0 0 0 0 0 0 0 0 0 0 0 0 .4 0"/>
<feOffset dx="4.0" dy="4.0" in="blurOut2" result="blurOut3"/>
<feBlend in="SourceGraphic" in2="blurOut3" mode="normal"/>
</filter>
</defs>
<g>
<line style="stroke: #A80036; stroke-width: 1.0; stroke-dasharray: 5.0,5.0;" x1="31" x2="31" y1="38.4883" y2="342.2832"/>
<line style="stroke: #A80036; stroke-width: 1.0; stroke-dasharray: 5.0,5.0;" x1="175.5" x2="175.5" y1="38.4883" y2="342.2832"/>
<line style="stroke: #A80036; stroke-width: 1.0; stroke-dasharray: 5.0,5.0;" x1="344.5" x2="344.5" y1="38.4883" y2="342.2832"/>
<line style="stroke: #A80036; stroke-width: 1.0; stroke-dasharray: 5.0,5.0;" x1="462.5" x2="462.5" y1="38.4883" y2="342.2832"/>
<rect fill="#FEFECE" filter="url(#f15zd5f28zthfl)" height="30.4883" style="stroke: #A80036; stroke-width: 1.5;" width="42" x="8" y="3"/>
<text fill="#000000" font-family="sans-serif" font-size="14" lengthAdjust="spacingAndGlyphs" textLength="28" x="15" y="23.5352">App</text>
<rect fill="#FEFECE" filter="url(#f15zd5f28zthfl)" height="30.4883" style="stroke: #A80036; stroke-width: 1.5;" width="42" x="8" y="341.2832"/>
<text fill="#000000" font-family="sans-serif" font-size="14" lengthAdjust="spacingAndGlyphs" textLength="28" x="15" y="361.8184">App</text>
<rect fill="#FEFECE" filter="url(#f15zd5f28zthfl)" height="30.4883" style="stroke: #A80036; stroke-width: 1.5;" width="129" x="109.5" y="3"/>
<text fill="#000000" font-family="sans-serif" font-size="14" lengthAdjust="spacingAndGlyphs" textLength="115" x="116.5" y="23.5352">ContentManager</text>
<rect fill="#FEFECE" filter="url(#f15zd5f28zthfl)" height="30.4883" style="stroke: #A80036; stroke-width: 1.5;" width="129" x="109.5" y="341.2832"/>
<text fill="#000000" font-family="sans-serif" font-size="14" lengthAdjust="spacingAndGlyphs" textLength="115" x="116.5" y="361.8184">ContentManager</text>
<rect fill="#FEFECE" filter="url(#f15zd5f28zthfl)" height="30.4883" style="stroke: #A80036; stroke-width: 1.5;" width="55" x="315.5" y="3"/>
<text fill="#000000" font-family="sans-serif" font-size="14" lengthAdjust="spacingAndGlyphs" textLength="41" x="322.5" y="23.5352">Player</text>
<rect fill="#FEFECE" filter="url(#f15zd5f28zthfl)" height="30.4883" style="stroke: #A80036; stroke-width: 1.5;" width="55" x="315.5" y="341.2832"/>
<text fill="#000000" font-family="sans-serif" font-size="14" lengthAdjust="spacingAndGlyphs" textLength="41" x="322.5" y="361.8184">Player</text>
<rect fill="#FEFECE" filter="url(#f15zd5f28zthfl)" height="30.4883" style="stroke: #A80036; stroke-width: 1.5;" width="153" x="384.5" y="3"/>
<text fill="#000000" font-family="sans-serif" font-size="14" lengthAdjust="spacingAndGlyphs" textLength="139" x="391.5" y="23.5352">LocalAssetsManager</text>
<rect fill="#FEFECE" filter="url(#f15zd5f28zthfl)" height="30.4883" style="stroke: #A80036; stroke-width: 1.5;" width="153" x="384.5" y="341.2832"/>
<text fill="#000000" font-family="sans-serif" font-size="14" lengthAdjust="spacingAndGlyphs" textLength="139" x="391.5" y="361.8184">LocalAssetsManager</text>
<path d="M196,53.4883 L196,78.4883 L489,78.4883 L489,63.4883 L479,53.4883 L196,53.4883 " fill="#FBFB77" filter="url(#f15zd5f28zthfl)" style="stroke: #A80036; stroke-width: 1.0;"/>
<path d="M479,53.4883 L479,63.4883 L489,63.4883 L479,53.4883 " fill="#FBFB77" style="stroke: #A80036; stroke-width: 1.0;"/>
<text fill="#000000" font-family="sans-serif" font-size="13" lengthAdjust="spacingAndGlyphs" textLength="272" x="202" y="71.0566">Player = PlayKitManager.shared.loadPlayer()</text>
<path d="M286,92.7988 L286,132.7988 L636,132.7988 L636,102.7988 L626,92.7988 L286,92.7988 " fill="#FBFB77" filter="url(#f15zd5f28zthfl)" style="stroke: #A80036; stroke-width: 1.0;"/>
<path d="M626,92.7988 L626,102.7988 L636,102.7988 L626,92.7988 " fill="#FBFB77" style="stroke: #A80036; stroke-width: 1.0;"/>
<text fill="#000000" font-family="sans-serif" font-size="13" lengthAdjust="spacingAndGlyphs" textLength="139" x="292" y="110.3672">localAssetsManager =</text>
<text fill="#000000" font-family="sans-serif" font-size="13" lengthAdjust="spacingAndGlyphs" textLength="329" x="292" y="125.6777">LocalAssetsManager.managerWithDefaultDataStore()</text>
<rect fill="#EEEEEE" filter="url(#f15zd5f28zthfl)" height="3" style="stroke: #EEEEEE; stroke-width: 1.0;" width="642" x="3" y="163.0752"/>
<line style="stroke: #000000; stroke-width: 1.0;" x1="3" x2="645" y1="163.0752" y2="163.0752"/>
<line style="stroke: #000000; stroke-width: 1.0;" x1="3" x2="645" y1="166.0752" y2="166.0752"/>
<rect fill="#EEEEEE" filter="url(#f15zd5f28zthfl)" height="23.3105" style="stroke: #000000; stroke-width: 2.0;" width="78" x="285" y="152.4199"/>
<text fill="#000000" font-family="sans-serif" font-size="13" font-weight="bold" lengthAdjust="spacingAndGlyphs" textLength="60" x="291" y="168.9883">Playback</text>
<polygon fill="#A80036" points="164,203.041,174,207.041,164,211.041,168,207.041" style="stroke: #A80036; stroke-width: 1.0;"/>
<line style="stroke: #A80036; stroke-width: 1.0;" x1="31" x2="170" y1="207.041" y2="207.041"/>
<text fill="#000000" font-family="sans-serif" font-size="13" lengthAdjust="spacingAndGlyphs" textLength="121" x="38" y="202.2988">itemPlaybackUrl(id)</text>
<polygon fill="#A80036" points="42,232.3516,32,236.3516,42,240.3516,38,236.3516" style="stroke: #A80036; stroke-width: 1.0;"/>
<line style="stroke: #A80036; stroke-width: 1.0;" x1="36" x2="175" y1="236.3516" y2="236.3516"/>
<text fill="#000000" font-family="sans-serif" font-size="13" lengthAdjust="spacingAndGlyphs" textLength="77" x="48" y="231.6094">playback url</text>
<polygon fill="#A80036" points="451,261.6621,461,265.6621,451,269.6621,455,265.6621" style="stroke: #A80036; stroke-width: 1.0;"/>
<line style="stroke: #A80036; stroke-width: 1.0;" x1="31" x2="457" y1="265.6621" y2="265.6621"/>
<text fill="#000000" font-family="sans-serif" font-size="13" lengthAdjust="spacingAndGlyphs" textLength="370" x="38" y="260.9199">createLocalMediaEntry(for: "localId", localURL: playbackUrl)</text>
<polygon fill="#A80036" points="42,290.9727,32,294.9727,42,298.9727,38,294.9727" style="stroke: #A80036; stroke-width: 1.0;"/>
<line style="stroke: #A80036; stroke-width: 1.0;" x1="36" x2="462" y1="294.9727" y2="294.9727"/>
<text fill="#000000" font-family="sans-serif" font-size="13" lengthAdjust="spacingAndGlyphs" textLength="70" x="48" y="290.2305">mediaEntry</text>
<polygon fill="#A80036" points="333,320.2832,343,324.2832,333,328.2832,337,324.2832" style="stroke: #A80036; stroke-width: 1.0;"/>
<line style="stroke: #A80036; stroke-width: 1.0;" x1="31" x2="339" y1="324.2832" y2="324.2832"/>
<text fill="#000000" font-family="sans-serif" font-size="13" lengthAdjust="spacingAndGlyphs" textLength="290" x="38" y="319.541">prepare(MediaConfig(mediaEntry: mediaEntry))</text>
</g>
</svg>
