<?xml version="1.0" encoding="utf-8" standalone="no"?>
<svg xmlns="http://www.w3.org/2000/svg" xmlns:xlink="http://www.w3.org/1999/xlink" height="273px" style="width:563px;height:273px;" version="1.1" viewBox="0 0 563 273" width="563px" zoomAndPan="magnify">
<defs>
<filter height="300%" id="f1n18mspvoome4" width="300%" x="-1" y="-1">
<feGaussianBlur result="blurOut" stdDeviation="2.0"/>
<feColorMatrix in="blurOut" result="blurOut2" type="matrix" values="0 0 0 0 0 0 0 0 0 0 0 0 0 0 0 0 0 0 .4 0"/>
<feOffset dx="4.0" dy="4.0" in="blurOut2" result="blurOut3"/>
<feBlend in="SourceGraphic" in2="blurOut3" mode="normal"/>
</filter>
</defs>
<g>
<line style="stroke: #A80036; stroke-width: 1.0;" x1="93" x2="93" y1="38.4883" y2="165.7305"/>
<line style="stroke: #A80036; stroke-width: 1.0; stroke-dasharray: 1.0,4.0;" x1="93" x2="93" y1="165.7305" y2="193.7305"/>
<line style="stroke: #A80036; stroke-width: 1.0;" x1="93" x2="93" y1="193.7305" y2="233.041"/>
<line style="stroke: #A80036; stroke-width: 1.0;" x1="253" x2="253" y1="38.4883" y2="165.7305"/>
<line style="stroke: #A80036; stroke-width: 1.0; stroke-dasharray: 1.0,4.0;" x1="253" x2="253" y1="165.7305" y2="193.7305"/>
<line style="stroke: #A80036; stroke-width: 1.0;" x1="253" x2="253" y1="193.7305" y2="233.041"/>
<line style="stroke: #A80036; stroke-width: 1.0;" x1="475.5" x2="475.5" y1="38.4883" y2="165.7305"/>
<line style="stroke: #A80036; stroke-width: 1.0; stroke-dasharray: 1.0,4.0;" x1="475.5" x2="475.5" y1="165.7305" y2="193.7305"/>
<line style="stroke: #A80036; stroke-width: 1.0;" x1="475.5" x2="475.5" y1="193.7305" y2="233.041"/>
<rect fill="#FEFECE" filter="url(#f1n18mspvoome4)" height="30.4883" style="stroke: #A80036; stroke-width: 1.5;" width="166" x="8" y="3"/>
<text fill="#000000" font-family="sans-serif" font-size="14" lengthAdjust="spacingAndGlyphs" textLength="152" x="15" y="23.5352">ContentManager class</text>
<rect fill="#FEFECE" filter="url(#f1n18mspvoome4)" height="30.4883" style="stroke: #A80036; stroke-width: 1.5;" width="166" x="8" y="232.041"/>
<text fill="#000000" font-family="sans-serif" font-size="14" lengthAdjust="spacingAndGlyphs" textLength="152" x="15" y="252.5762">ContentManager class</text>
<rect fill="#FEFECE" filter="url(#f1n18mspvoome4)" height="30.4883" style="stroke: #A80036; stroke-width: 1.5;" width="126" x="188" y="3"/>
<text fill="#000000" font-family="sans-serif" font-size="14" lengthAdjust="spacingAndGlyphs" textLength="112" x="195" y="23.5352">app: Application</text>
<rect fill="#FEFECE" filter="url(#f1n18mspvoome4)" height="30.4883" style="stroke: #A80036; stroke-width: 1.5;" width="126" x="188" y="232.041"/>
<text fill="#000000" font-family="sans-serif" font-size="14" lengthAdjust="spacingAndGlyphs" textLength="112" x="195" y="252.5762">app: Application</text>
<rect fill="#FEFECE" filter="url(#f1n18mspvoome4)" height="30.4883" style="stroke: #A80036; stroke-width: 1.5;" width="157" x="395.5" y="3"/>
<text fill="#000000" font-family="sans-serif" font-size="14" lengthAdjust="spacingAndGlyphs" textLength="143" x="402.5" y="23.5352">cm: ContentManager</text>
<rect fill="#FEFECE" filter="url(#f1n18mspvoome4)" height="30.4883" style="stroke: #A80036; stroke-width: 1.5;" width="157" x="395.5" y="232.041"/>
<text fill="#000000" font-family="sans-serif" font-size="14" lengthAdjust="spacingAndGlyphs" textLength="143" x="402.5" y="252.5762">cm: ContentManager</text>
<polygon fill="#A80036" points="104,65.4883,94,69.4883,104,73.4883,100,69.4883" style="stroke: #A80036; stroke-width: 1.0;"/>
<line style="stroke: #A80036; stroke-width: 1.0;" x1="98" x2="252" y1="69.4883" y2="69.4883"/>
<text fill="#000000" font-family="sans-serif" font-size="13" lengthAdjust="spacingAndGlyphs" textLength="129" x="110" y="65.0566">getInstance(context)</text>
<polygon fill="#A80036" points="241,94.7988,251,98.7988,241,102.7988,245,98.7988" style="stroke: #A80036; stroke-width: 1.0;"/>
<line style="stroke: #A80036; stroke-width: 1.0;" x1="93" x2="247" y1="98.7988" y2="98.7988"/>
<text fill="#000000" font-family="sans-serif" font-size="13" lengthAdjust="spacingAndGlyphs" textLength="19" x="100" y="94.3672">cm</text>
<polygon fill="#A80036" points="464,124.1094,474,128.1094,464,132.1094,468,128.1094" style="stroke: #A80036; stroke-width: 1.0;"/>
<line style="stroke: #A80036; stroke-width: 1.0;" x1="253" x2="470" y1="128.1094" y2="128.1094"/>
<text fill="#000000" font-family="sans-serif" font-size="13" lengthAdjust="spacingAndGlyphs" textLength="199" x="260" y="123.6777">addDownloadStateListener(this)</text>
<polygon fill="#A80036" points="464,153.4199,474,157.4199,464,161.4199,468,157.4199" style="stroke: #A80036; stroke-width: 1.0;"/>
<line style="stroke: #A80036; stroke-width: 1.0;" x1="253" x2="470" y1="157.4199" y2="157.4199"/>
<text fill="#000000" font-family="sans-serif" font-size="13" lengthAdjust="spacingAndGlyphs" textLength="37" x="260" y="152.9883">start()</text>
<polygon fill="#A80036" points="464,210.7305,474,214.7305,464,218.7305,468,214.7305" style="stroke: #A80036; stroke-width: 1.0;"/>
<line style="stroke: #A80036; stroke-width: 1.0;" x1="253" x2="470" y1="214.7305" y2="214.7305"/>
<text fill="#000000" font-family="sans-serif" font-size="13" lengthAdjust="spacingAndGlyphs" textLength="36" x="260" y="210.2988">stop()</text>
</g>
</svg>
