<?xml version="1.0" encoding="utf-8" standalone="no"?>
<svg xmlns="http://www.w3.org/2000/svg" xmlns:xlink="http://www.w3.org/1999/xlink" height="257px" style="width:481px;height:257px;" version="1.1" viewBox="0 0 481 257" width="481px" zoomAndPan="magnify">
<defs>
<filter height="300%" id="fib8w3qtl9e2t" width="300%" x="-1" y="-1">
<feGaussianBlur result="blurOut" stdDeviation="2.0"/>
<feColorMatrix in="blurOut" result="blurOut2" type="matrix" values="0 0 0 0 0 0 0 0 0 0 0 0 0 0 0 0 0 0 .4 0"/>
<feOffset dx="4.0" dy="4.0" in="blurOut2" result="blurOut3"/>
<feBlend in="SourceGraphic" in2="blurOut3" mode="normal"/>
</filter>
</defs>
<g>
<rect fill="#FFFFFF" filter="url(#fib8w3qtl9e2t)" height="115.2422" style="stroke: #000000; stroke-width: 2.0;" width="457" x="13" y="55.4883"/>
<line style="stroke: #A80036; stroke-width: 1.0; stroke-dasharray: 5.0,5.0;" x1="72" x2="72" y1="38.4883" y2="217.041"/>
<line style="stroke: #A80036; stroke-width: 1.0; stroke-dasharray: 5.0,5.0;" x1="199" x2="199" y1="38.4883" y2="217.041"/>
<line style="stroke: #A80036; stroke-width: 1.0; stroke-dasharray: 5.0,5.0;" x1="373" x2="373" y1="38.4883" y2="217.041"/>
<rect fill="#FEFECE" filter="url(#fib8w3qtl9e2t)" height="30.4883" style="stroke: #A80036; stroke-width: 1.5;" width="76" x="32" y="3"/>
<text fill="#000000" font-family="sans-serif" font-size="14" lengthAdjust="spacingAndGlyphs" textLength="62" x="39" y="23.5352">app: App</text>
<rect fill="#FEFECE" filter="url(#fib8w3qtl9e2t)" height="30.4883" style="stroke: #A80036; stroke-width: 1.5;" width="76" x="32" y="216.041"/>
<text fill="#000000" font-family="sans-serif" font-size="14" lengthAdjust="spacingAndGlyphs" textLength="62" x="39" y="236.5762">app: App</text>
<rect fill="#FEFECE" filter="url(#fib8w3qtl9e2t)" height="30.4883" style="stroke: #A80036; stroke-width: 1.5;" width="151" x="122" y="3"/>
<text fill="#000000" font-family="sans-serif" font-size="14" lengthAdjust="spacingAndGlyphs" textLength="137" x="129" y="23.5352">item: DownloadItem</text>
<rect fill="#FEFECE" filter="url(#fib8w3qtl9e2t)" height="30.4883" style="stroke: #A80036; stroke-width: 1.5;" width="151" x="122" y="216.041"/>
<text fill="#000000" font-family="sans-serif" font-size="14" lengthAdjust="spacingAndGlyphs" textLength="137" x="129" y="236.5762">item: DownloadItem</text>
<rect fill="#FEFECE" filter="url(#fib8w3qtl9e2t)" height="30.4883" style="stroke: #A80036; stroke-width: 1.5;" width="169" x="287" y="3"/>
<text fill="#000000" font-family="sans-serif" font-size="14" lengthAdjust="spacingAndGlyphs" textLength="155" x="294" y="23.5352">selector: TrackSelector</text>
<rect fill="#FEFECE" filter="url(#fib8w3qtl9e2t)" height="30.4883" style="stroke: #A80036; stroke-width: 1.5;" width="169" x="287" y="216.041"/>
<text fill="#000000" font-family="sans-serif" font-size="14" lengthAdjust="spacingAndGlyphs" textLength="155" x="294" y="236.5762">selector: TrackSelector</text>
<path d="M13,55.4883 L268,55.4883 L268,62.4883 L258,72.4883 L13,72.4883 L13,55.4883 " fill="#EEEEEE" style="stroke: #000000; stroke-width: 1.0;"/>
<rect fill="none" height="115.2422" style="stroke: #000000; stroke-width: 2.0;" width="457" x="13" y="55.4883"/>
<text fill="#000000" font-family="sans-serif" font-size="13" font-weight="bold" lengthAdjust="spacingAndGlyphs" textLength="210" x="28" y="69.0566">for type in VIDEO, AUDIO, TEXT</text>
<polygon fill="#A80036" points="361.5,89.7988,371.5,93.7988,361.5,97.7988,365.5,93.7988" style="stroke: #A80036; stroke-width: 1.0;"/>
<line style="stroke: #A80036; stroke-width: 1.0;" x1="72" x2="367.5" y1="93.7988" y2="93.7988"/>
<text fill="#000000" font-family="sans-serif" font-size="13" lengthAdjust="spacingAndGlyphs" textLength="211" x="79" y="89.3672">tracks = getAvailableTracks(type)</text>
<path d="M23,107.1094 L23,132.1094 L117,132.1094 L117,117.1094 L107,107.1094 L23,107.1094 " fill="#FBFB77" filter="url(#fib8w3qtl9e2t)" style="stroke: #A80036; stroke-width: 1.0;"/>
<path d="M107,107.1094 L107,117.1094 L117,117.1094 L107,107.1094 " fill="#FBFB77" style="stroke: #A80036; stroke-width: 1.0;"/>
<text fill="#000000" font-family="sans-serif" font-size="13" lengthAdjust="spacingAndGlyphs" textLength="73" x="29" y="124.6777">filter tracks</text>
<polygon fill="#A80036" points="361.5,158.4199,371.5,162.4199,361.5,166.4199,365.5,162.4199" style="stroke: #A80036; stroke-width: 1.0;"/>
<line style="stroke: #A80036; stroke-width: 1.0;" x1="72" x2="367.5" y1="162.4199" y2="162.4199"/>
<text fill="#000000" font-family="sans-serif" font-size="13" lengthAdjust="spacingAndGlyphs" textLength="243" x="79" y="157.9883">setSelectedTracks(type, filteredTracks)</text>
<polygon fill="#A80036" points="361.5,194.7305,371.5,198.7305,361.5,202.7305,365.5,198.7305" style="stroke: #A80036; stroke-width: 1.0;"/>
<line style="stroke: #A80036; stroke-width: 1.0;" x1="72" x2="367.5" y1="198.7305" y2="198.7305"/>
<text fill="#000000" font-family="sans-serif" font-size="13" lengthAdjust="spacingAndGlyphs" textLength="42" x="79" y="194.2988">apply()</text>
</g>
</svg>
