<?xml version="1.0" encoding="utf-8" standalone="no"?>
<svg xmlns="http://www.w3.org/2000/svg" xmlns:xlink="http://www.w3.org/1999/xlink" height="531px" style="width:372px;height:531px;" version="1.1" viewBox="0 0 372 531" width="372px" zoomAndPan="magnify">
<defs>
<filter height="300%" id="f1cp3kk2n2mqj9" width="300%" x="-1" y="-1">
<feGaussianBlur result="blurOut" stdDeviation="2.0"/>
<feColorMatrix in="blurOut" result="blurOut2" type="matrix" values="0 0 0 0 0 0 0 0 0 0 0 0 0 0 0 0 0 0 .4 0"/>
<feOffset dx="4.0" dy="4.0" in="blurOut2" result="blurOut3"/>
<feBlend in="SourceGraphic" in2="blurOut3" mode="normal"/>
</filter>
</defs>
<g>
<ellipse cx="185" cy="18" fill="#000000" filter="url(#f1cp3kk2n2mqj9)" rx="10" ry="10" style="stroke: none; stroke-width: 1.0;"/>
<rect fill="#FEFECE" filter="url(#f1cp3kk2n2mqj9)" height="50" rx="12.5" ry="12.5" style="stroke: #A80036; stroke-width: 1.5;" width="50" x="160" y="89"/>
<line style="stroke: #A80036; stroke-width: 1.5;" x1="160" x2="210" y1="115.4883" y2="115.4883"/>
<text fill="#000000" font-family="sans-serif" font-size="14" lengthAdjust="spacingAndGlyphs" textLength="30" x="170" y="107.5352">NEW</text>
<rect fill="#FEFECE" filter="url(#f1cp3kk2n2mqj9)" height="50" rx="12.5" ry="12.5" style="stroke: #A80036; stroke-width: 1.5;" width="116" x="127" y="216"/>
<line style="stroke: #A80036; stroke-width: 1.5;" x1="127" x2="243" y1="242.4883" y2="242.4883"/>
<text fill="#000000" font-family="sans-serif" font-size="14" lengthAdjust="spacingAndGlyphs" textLength="96" x="137" y="234.5352">INFO_LOADED</text>
<rect fill="#FEFECE" filter="url(#f1cp3kk2n2mqj9)" height="50" rx="12.5" ry="12.5" style="stroke: #A80036; stroke-width: 1.5;" width="112" x="129" y="343"/>
<line style="stroke: #A80036; stroke-width: 1.5;" x1="129" x2="241" y1="369.4883" y2="369.4883"/>
<text fill="#000000" font-family="sans-serif" font-size="14" lengthAdjust="spacingAndGlyphs" textLength="92" x="139" y="361.5352">IN_PROGRESS</text>
<rect fill="#FEFECE" filter="url(#f1cp3kk2n2mqj9)" height="50" rx="12.5" ry="12.5" style="stroke: #A80036; stroke-width: 1.5;" width="74" x="6" y="470"/>
<line style="stroke: #A80036; stroke-width: 1.5;" x1="6" x2="80" y1="496.4883" y2="496.4883"/>
<text fill="#000000" font-family="sans-serif" font-size="14" lengthAdjust="spacingAndGlyphs" textLength="54" x="16" y="488.5352">PAUSED</text>
<rect fill="#FEFECE" filter="url(#f1cp3kk2n2mqj9)" height="50" rx="12.5" ry="12.5" style="stroke: #A80036; stroke-width: 1.5;" width="93" x="138.5" y="470"/>
<line style="stroke: #A80036; stroke-width: 1.5;" x1="138.5" x2="231.5" y1="496.4883" y2="496.4883"/>
<text fill="#000000" font-family="sans-serif" font-size="14" lengthAdjust="spacingAndGlyphs" textLength="73" x="148.5" y="488.5352">COMPLETE</text>
<rect fill="#FEFECE" filter="url(#f1cp3kk2n2mqj9)" height="50" rx="12.5" ry="12.5" style="stroke: #A80036; stroke-width: 1.5;" width="67" x="293.5" y="470"/>
<line style="stroke: #A80036; stroke-width: 1.5;" x1="293.5" x2="360.5" y1="496.4883" y2="496.4883"/>
<text fill="#000000" font-family="sans-serif" font-size="14" lengthAdjust="spacingAndGlyphs" textLength="47" x="303.5" y="488.5352">FAILED</text>
<path d="M185,28.2737 C185,41.3608 185,64.5555 185,83.5207 " fill="none" id="*start-NEW" style="stroke: #A80036; stroke-width: 1.0;"/>
<polygon fill="#A80036" points="185,88.7458,189,79.7458,185,83.7458,181,79.7458,185,88.7458" style="stroke: #A80036; stroke-width: 1.0;"/>
<path d="M185,139.0911 C185,159.7035 185,188.9647 185,210.8484 " fill="none" id="NEW-INFO_LOADED" style="stroke: #A80036; stroke-width: 1.0;"/>
<polygon fill="#A80036" points="185,215.961,189,206.961,185,210.961,181,206.961,185,215.961" style="stroke: #A80036; stroke-width: 1.0;"/>
<text fill="#000000" font-family="sans-serif" font-size="13" lengthAdjust="spacingAndGlyphs" textLength="60" x="186" y="182.5684">loadInfo()</text>
<path d="M185,266.0911 C185,286.7035 185,315.9647 185,337.8484 " fill="none" id="INFO_LOADED-IN_PROGRESS" style="stroke: #A80036; stroke-width: 1.0;"/>
<polygon fill="#A80036" points="185,342.961,189,333.961,185,337.961,181,333.961,185,342.961" style="stroke: #A80036; stroke-width: 1.0;"/>
<text fill="#000000" font-family="sans-serif" font-size="13" lengthAdjust="spacingAndGlyphs" textLength="37" x="186" y="309.5684">start()</text>
<path d="M128.6263,378.9468 C84.9113,388.7152 29.5523,404.3376 16,423 C6.9085,435.5196 11.5829,451.4606 19.4223,465.159 " fill="none" id="IN_PROGRESS-PAUSED" style="stroke: #A80036; stroke-width: 1.0;"/>
<polygon fill="#A80036" points="22.1869,469.7104,20.9331,459.9417,19.5911,465.437,14.0957,464.095,22.1869,469.7104" style="stroke: #A80036; stroke-width: 1.0;"/>
<text fill="#000000" font-family="sans-serif" font-size="13" lengthAdjust="spacingAndGlyphs" textLength="45" x="17" y="436.5684">pause()</text>
<path d="M70.9964,469.961 C94.61,448.8418 128.4057,418.616 153.0685,396.5584 " fill="none" id="PAUSED-IN_PROGRESS" style="stroke: #A80036; stroke-width: 1.0;"/>
<polygon fill="#A80036" points="156.9454,393.0911,147.5704,396.1093,153.2185,396.4243,152.9035,402.0724,156.9454,393.0911" style="stroke: #A80036; stroke-width: 1.0;"/>
<text fill="#000000" font-family="sans-serif" font-size="13" lengthAdjust="spacingAndGlyphs" textLength="37" x="124" y="436.5684">start()</text>
<path d="M183.0926,393.3179 C182.268,407.1151 181.5774,424.4923 182,440 C182.2159,447.9222 182.6064,456.4792 183.0359,464.4297 " fill="none" id="IN_PROGRESS-COMPLETE" style="stroke: #A80036; stroke-width: 1.0;"/>
<polygon fill="#A80036" points="183.3377,469.8217,186.8282,460.6121,183.0581,464.8295,178.8407,461.0594,183.3377,469.8217" style="stroke: #A80036; stroke-width: 1.0;"/>
<text fill="#000000" font-family="sans-serif" font-size="13" lengthAdjust="spacingAndGlyphs" textLength="51" x="183" y="436.5684">finished</text>
<path d="M213.0546,393.0911 C236.685,414.2253 270.4815,444.4518 295.1293,466.496 " fill="none" id="IN_PROGRESS-FAILED" style="stroke: #A80036; stroke-width: 1.0;"/>
<polygon fill="#A80036" points="299.0036,469.961,294.9619,460.9796,295.2768,466.6277,289.6287,466.9426,299.0036,469.961" style="stroke: #A80036; stroke-width: 1.0;"/>
<text fill="#000000" font-family="sans-serif" font-size="13" lengthAdjust="spacingAndGlyphs" textLength="35" x="266" y="436.5684">failed</text>
<path d="M326.5316,469.8592 C325.0257,454.7667 320.8449,436.0314 310,423 C293.7171,403.4342 269.1061,390.6059 246.0164,382.3053 " fill="none" id="FAILED-IN_PROGRESS" style="stroke: #A80036; stroke-width: 1.0;"/>
<polygon fill="#A80036" points="241.1159,380.602,248.3038,387.3351,245.8387,382.2436,250.9303,379.7785,241.1159,380.602" style="stroke: #A80036; stroke-width: 1.0;"/>
<text fill="#000000" font-family="sans-serif" font-size="13" lengthAdjust="spacingAndGlyphs" textLength="37" x="321" y="436.5684">start()</text>
</g>
</svg>
