<?xml version="1.0" encoding="UTF-8" standalone="no"?><svg xmlns="http://www.w3.org/2000/svg" xmlns:xlink="http://www.w3.org/1999/xlink" contentScriptType="application/ecmascript" contentStyleType="text/css" height="555px" preserveAspectRatio="none" style="width:747px;height:555px;" version="1.1" viewBox="0 0 747 555" width="747px" zoomAndPan="magnify"><defs><filter height="300%" id="fn4dsr8kq83kb" width="300%" x="-1" y="-1"><feGaussianBlur result="blurOut" stdDeviation="2.0"/><feColorMatrix in="blurOut" result="blurOut2" type="matrix" values="0 0 0 0 0 0 0 0 0 0 0 0 0 0 0 0 0 0 .4 0"/><feOffset dx="4.0" dy="4.0" in="blurOut2" result="blurOut3"/><feBlend in="SourceGraphic" in2="blurOut3" mode="normal"/></filter></defs><g><text fill="#000000" font-family="sans-serif" font-size="18" lengthAdjust="spacingAndGlyphs" textLength="154" x="299.75" y="16.708">Simple DTG Flow</text><ellipse cx="73.25" cy="38.9531" fill="#000000" filter="url(#fn4dsr8kq83kb)" rx="10" ry="10" style="stroke: none; stroke-width: 1.0;"/><rect fill="#FEFECE" filter="url(#fn4dsr8kq83kb)" height="50" rx="12.5" ry="12.5" style="stroke: #A80036; stroke-width: 1.5;" width="50" x="48.25" y="126.9531"/><line style="stroke: #A80036; stroke-width: 1.5;" x1="48.25" x2="98.25" y1="153.25" y2="153.25"/><text fill="#000000" font-family="sans-serif" font-size="14" lengthAdjust="spacingAndGlyphs" textLength="30" x="58.25" y="144.9482">New</text><rect fill="#FEFECE" filter="url(#fn4dsr8kq83kb)" height="50" rx="12.5" ry="12.5" style="stroke: #A80036; stroke-width: 1.5;" width="135" x="6" y="254.9531"/><line style="stroke: #A80036; stroke-width: 1.5;" x1="6" x2="141" y1="281.25" y2="281.25"/><text fill="#000000" font-family="sans-serif" font-size="14" lengthAdjust="spacingAndGlyphs" textLength="115" x="16" y="272.9482">MetadataLoaded</text><rect fill="#FEFECE" filter="url(#fn4dsr8kq83kb)" height="50" rx="12.5" ry="12.5" style="stroke: #A80036; stroke-width: 1.5;" width="94" x="367.25" y="254.9531"/><line style="stroke: #A80036; stroke-width: 1.5;" x1="367.25" x2="461.25" y1="281.25" y2="281.25"/><text fill="#000000" font-family="sans-serif" font-size="14" lengthAdjust="spacingAndGlyphs" textLength="74" x="377.25" y="272.9482">InProgress</text><rect fill="#FEFECE" filter="url(#fn4dsr8kq83kb)" height="50" rx="12.5" ry="12.5" style="stroke: #A80036; stroke-width: 1.5;" width="60" x="100.75" y="382.9531"/><line style="stroke: #A80036; stroke-width: 1.5;" x1="100.75" x2="160.75" y1="409.25" y2="409.25"/><text fill="#000000" font-family="sans-serif" font-size="14" lengthAdjust="spacingAndGlyphs" textLength="40" x="110.75" y="400.9482">Failed</text><rect fill="#FEFECE" filter="url(#fn4dsr8kq83kb)" height="50" rx="12.5" ry="12.5" style="stroke: #A80036; stroke-width: 1.5;" width="96" x="639.25" y="254.9531"/><line style="stroke: #A80036; stroke-width: 1.5;" x1="639.25" x2="735.25" y1="281.25" y2="281.25"/><text fill="#000000" font-family="sans-serif" font-size="14" lengthAdjust="spacingAndGlyphs" textLength="76" x="649.25" y="272.9482">Completed</text><rect fill="#FEFECE" filter="url(#fn4dsr8kq83kb)" height="50" rx="12.5" ry="12.5" style="stroke: #A80036; stroke-width: 1.5;" width="72" x="313.25" y="382.9531"/><line style="stroke: #A80036; stroke-width: 1.5;" x1="313.25" x2="385.25" y1="409.25" y2="409.25"/><text fill="#000000" font-family="sans-serif" font-size="14" lengthAdjust="spacingAndGlyphs" textLength="52" x="323.25" y="400.9482">Paused</text><rect fill="#FEFECE" filter="url(#fn4dsr8kq83kb)" height="50" rx="12.5" ry="12.5" style="stroke: #A80036; stroke-width: 1.5;" width="97" x="545" y="494.9531"/><line style="stroke: #A80036; stroke-width: 1.5;" x1="545" x2="642" y1="521.25" y2="521.25"/><text fill="#000000" font-family="sans-serif" font-size="14" lengthAdjust="spacingAndGlyphs" textLength="77" x="555" y="512.9482">Interrupted</text><!--link *start to New--><path d="M73.25,49.0371 C73.25,64.6981 73.25,97.4271 73.25,121.5901 " fill="none" id="*start-New" style="stroke: #A80036; stroke-width: 1.0;"/><polygon fill="#A80036" points="73.25,126.6061,77.25,117.6061,73.25,121.6061,69.25,117.6061,73.25,126.6061" style="stroke: #A80036; stroke-width: 1.0;"/><text fill="#000000" font-family="sans-serif" font-size="13" lengthAdjust="spacingAndGlyphs" textLength="58" x="74.25" y="92.02">Add Item</text><!--link New to MetadataLoaded--><path d="M73.25,177.2471 C73.25,197.9031 73.25,227.6221 73.25,249.6041 " fill="none" id="New-MetadataLoaded" style="stroke: #A80036; stroke-width: 1.0;"/><polygon fill="#A80036" points="73.25,254.7341,77.25,245.7341,73.25,249.7341,69.25,245.7341,73.25,254.7341" style="stroke: #A80036; stroke-width: 1.0;"/><text fill="#000000" font-family="sans-serif" font-size="13" lengthAdjust="spacingAndGlyphs" textLength="129" x="74.25" y="220.02">Load Item Metadata</text><!--link MetadataLoaded to InProgress--><path d="M140.621,279.9531 C205.528,279.9531 302.376,279.9531 361.753,279.9531 " fill="none" id="MetadataLoaded-InProgress" style="stroke: #A80036; stroke-width: 1.0;"/><polygon fill="#A80036" points="367.024,279.9531,358.024,275.9531,362.024,279.9531,358.024,283.9531,367.024,279.9531" style="stroke: #A80036; stroke-width: 1.0;"/><text fill="#000000" font-family="sans-serif" font-size="13" lengthAdjust="spacingAndGlyphs" textLength="65" x="220.75" y="272.02">Start Item</text><!--link MetadataLoaded to Failed--><path d="M67.0336,304.9791 C64.5241,319.4791 63.5822,337.9811 70.25,352.9531 C75.8874,365.6111 86.1205,376.5471 96.5585,385.2021 " fill="none" id="MetadataLoaded-Failed" style="stroke: #A80036; stroke-width: 1.0;"/><polygon fill="#A80036" points="100.7157,388.5271,96.1847,379.7824,96.8107,385.4045,91.1885,386.0305,100.7157,388.5271" style="stroke: #A80036; stroke-width: 1.0;"/><text fill="#000000" font-family="sans-serif" font-size="13" lengthAdjust="spacingAndGlyphs" textLength="70" x="71.25" y="348.02">Item Failed</text><!--link InProgress to Completed--><path d="M461.491,279.9531 C509.59,279.9531 584.02,279.9531 634.137,279.9531 " fill="none" id="InProgress-Completed" style="stroke: #A80036; stroke-width: 1.0;"/><polygon fill="#A80036" points="639.212,279.9531,630.212,275.9531,634.212,279.9531,630.212,283.9531,639.212,279.9531" style="stroke: #A80036; stroke-width: 1.0;"/><text fill="#000000" font-family="sans-serif" font-size="13" lengthAdjust="spacingAndGlyphs" textLength="140" x="479.75" y="272.02">On Download Finished</text><!--link InProgress to Paused--><path d="M367.236,289.6671 C341.562,297.0821 311.892,310.5921 296.25,334.9531 C286.591,349.9951 296.35,366.0761 310.011,379.2161 " fill="none" id="InProgress-Paused" style="stroke: #A80036; stroke-width: 1.0;"/><polygon fill="#A80036" points="313.954,382.8401,310.0335,373.8052,310.2723,379.457,304.6205,379.6959,313.954,382.8401" style="stroke: #A80036; stroke-width: 1.0;"/><text fill="#000000" font-family="sans-serif" font-size="13" lengthAdjust="spacingAndGlyphs" textLength="72" x="297.25" y="348.02">Pause Item</text><!--link Paused to InProgress--><path d="M361.744,382.7341 C372.478,361.9251 387.978,331.8801 399.355,309.8261 " fill="none" id="Paused-InProgress" style="stroke: #A80036; stroke-width: 1.0;"/><polygon fill="#A80036" points="401.717,305.2471,394.035,311.4105,399.424,309.6903,401.1441,315.0793,401.717,305.2471" style="stroke: #A80036; stroke-width: 1.0;"/><text fill="#000000" font-family="sans-serif" font-size="13" lengthAdjust="spacingAndGlyphs" textLength="65" x="387.25" y="348.02">Start Item</text><!--link InProgress to Interrupted--><path d="M436.807,305.2021 C445.039,314.3411 454.278,324.9461 462.25,334.9531 C465.176,338.6261 537.113,439.8841 573.113,490.5868 " fill="none" id="InProgress-Interrupted" style="stroke: #A80036; stroke-width: 1.0;"/><polygon fill="#A80036" points="576.062,494.7398,574.112,485.0859,573.1668,490.6633,567.5895,489.7182,576.062,494.7398" style="stroke: #A80036; stroke-width: 1.0;"/><text fill="#000000" font-family="sans-serif" font-size="13" lengthAdjust="spacingAndGlyphs" textLength="104" x="532.25" y="412.02">Item Interrupted</text><!--link Interrupted to InProgress--><path d="M614.671,494.8621 C637.196,466.4584 666.402,418.6101 643.25,382.9531 C604.332,323.0141 521.125,298.0031 466.456,287.7721 " fill="none" id="Interrupted-InProgress" style="stroke: #A80036; stroke-width: 1.0;"/><polygon fill="#A80036" points="461.257,286.8271,469.3963,292.3726,466.1763,287.7216,470.8274,284.5016,461.257,286.8271" style="stroke: #A80036; stroke-width: 1.0;"/><text fill="#000000" font-family="sans-serif" font-size="13" lengthAdjust="spacingAndGlyphs" textLength="65" x="652.25" y="412.02">Start Item</text><!--link InProgress to Failed--><path d="M367.081,287.2891 C324.637,294.4111 261.552,308.6001 212.25,334.9531 C191.148,346.2321 170.909,363.9071 155.818,378.9211 " fill="none" id="InProgress-Failed" style="stroke: #A80036; stroke-width: 1.0;"/><polygon fill="#A80036" points="152.095,382.6751,161.2723,379.1006,155.6155,379.1246,155.5915,373.4678,152.095,382.6751" style="stroke: #A80036; stroke-width: 1.0;"/><text fill="#000000" font-family="sans-serif" font-size="13" lengthAdjust="spacingAndGlyphs" textLength="70" x="213.25" y="348.02">Item Failed</text><!--
@startuml 

title Simple DTG Flow

[*] - -> New : Add Item

New - -> MetadataLoaded : Load Item Metadata

MetadataLoaded -> InProgress : Start Item
MetadataLoaded -> Failed : Item Failed

InProgress -> Completed : On Download Finished
InProgress - -> Paused : Pause Item
InProgress - - -> Interrupted : Item Interrupted

InProgress - -> Failed : Item Failed

Paused - -> InProgress : Start Item

Interrupted - - -> InProgress : Start Item

@enduml

PlantUML version 1.2019.03(Sun Mar 10 07:04:44 EDT 2019)
(GPL source distribution)
Java Runtime: OpenJDK Runtime Environment
JVM: OpenJDK 64-Bit Server VM
Java Version: 1.7.0_131-b00
Operating System: Linux
OS Version: 3.13.0-76-generic
Default Encoding: UTF-8
Language: en
Country: US
--></g></svg>