<?xml version="1.0" encoding="UTF-8" standalone="yes"?><svg xmlns="http://www.w3.org/2000/svg" xmlns:xlink="http://www.w3.org/1999/xlink" height="671px" style="width:645px;height:671px;" version="1.1" viewBox="0 0 645 671" width="645px"><defs><filter height="300%" id="f1" width="300%" x="-1" y="-1"><feGaussianBlur result="blurOut" stdDeviation="2.0"/><feColorMatrix in="blurOut" result="blurOut2" type="matrix" values="0 0 0 0 0 0 0 0 0 0 0 0 0 0 0 0 0 0 .4 0"/><feOffset dx="4.0" dy="4.0" in="blurOut2" result="blurOut3"/><feBlend in="SourceGraphic" in2="blurOut3" mode="normal"/></filter></defs><g><rect fill="#FFFFFF" filter="url(#f1)" height="576.0625" style="stroke: #A80036; stroke-width: 1.0;" width="10" x="121" y="48.2969"/><rect fill="#FFFFFF" filter="url(#f1)" height="576.0625" style="stroke: #A80036; stroke-width: 1.0;" width="10" x="357" y="48.2969"/><rect fill="#FFFFFF" filter="url(#f1)" height="279.1953" style="stroke: #A80036; stroke-width: 1.0;" width="10" x="543" y="345.1641"/><rect fill="#FFFFFF" filter="url(#f1)" height="343.2656" style="stroke: #000000; stroke-width: 2.0;" width="614" x="22" y="204.8281"/><rect fill="#FFFFFF" height="297" style="stroke: none; stroke-width: 1.0;" width="614" x="22" y="251.0938"/><line style="stroke: #A80036; stroke-width: 1.0; stroke-dasharray: 5.0,5.0;" x1="126" x2="126" y1="38.2969" y2="633.3594"/><line style="stroke: #A80036; stroke-width: 1.0; stroke-dasharray: 5.0,5.0;" x1="362" x2="362" y1="38.2969" y2="633.3594"/><line style="stroke: #A80036; stroke-width: 1.0; stroke-dasharray: 5.0,5.0;" x1="548" x2="548" y1="38.2969" y2="633.3594"/><rect fill="#FEFECE" filter="url(#f1)" height="30.2969" style="stroke: #A80036; stroke-width: 1.5;" width="124" x="62" y="3"/><text fill="#000000" font-family="sans-serif" font-size="14" lengthAdjust="spacingAndGlyphs" textLength="110" x="69" y="22.9951">app: Application</text><rect fill="#FEFECE" filter="url(#f1)" height="30.2969" style="stroke: #A80036; stroke-width: 1.5;" width="124" x="62" y="632.3594"/><text fill="#000000" font-family="sans-serif" font-size="14" lengthAdjust="spacingAndGlyphs" textLength="110" x="69" y="652.3545">app: Application</text><rect fill="#FEFECE" filter="url(#f1)" height="30.2969" style="stroke: #A80036; stroke-width: 1.5;" width="160" x="280" y="3"/><text fill="#000000" font-family="sans-serif" font-size="14" lengthAdjust="spacingAndGlyphs" textLength="146" x="287" y="22.9951">cm: ContentManager</text><rect fill="#FEFECE" filter="url(#f1)" height="30.2969" style="stroke: #A80036; stroke-width: 1.5;" width="160" x="280" y="632.3594"/><text fill="#000000" font-family="sans-serif" font-size="14" lengthAdjust="spacingAndGlyphs" textLength="146" x="287" y="652.3545">cm: ContentManager</text><rect fill="#FEFECE" filter="url(#f1)" height="30.2969" style="stroke: #A80036; stroke-width: 1.5;" width="152" x="470" y="3"/><text fill="#000000" font-family="sans-serif" font-size="14" lengthAdjust="spacingAndGlyphs" textLength="138" x="477" y="22.9951">item: DownloadItem</text><rect fill="#FEFECE" filter="url(#f1)" height="30.2969" style="stroke: #A80036; stroke-width: 1.5;" width="152" x="470" y="632.3594"/><text fill="#000000" font-family="sans-serif" font-size="14" lengthAdjust="spacingAndGlyphs" textLength="138" x="477" y="652.3545">item: DownloadItem</text><rect fill="#FFFFFF" filter="url(#f1)" height="576.0625" style="stroke: #A80036; stroke-width: 1.0;" width="10" x="121" y="48.2969"/><rect fill="#FFFFFF" filter="url(#f1)" height="576.0625" style="stroke: #A80036; stroke-width: 1.0;" width="10" x="357" y="48.2969"/><rect fill="#FFFFFF" filter="url(#f1)" height="279.1953" style="stroke: #A80036; stroke-width: 1.0;" width="10" x="543" y="345.1641"/><polygon fill="#FBFB77" filter="url(#f1)" points="22,53.2969,22,78.2969,225,78.2969,225,63.2969,215,53.2969,22,53.2969" style="stroke: #A80036; stroke-width: 1.0;"/><line style="stroke: #A80036; stroke-width: 1.0;" x1="215" x2="215" y1="53.2969" y2="63.2969"/><line style="stroke: #A80036; stroke-width: 1.0;" x1="225" x2="215" y1="63.2969" y2="63.2969"/><text fill="#000000" font-family="sans-serif" font-size="13" lengthAdjust="spacingAndGlyphs" textLength="182" x="28" y="70.3638">User enters media info page</text><polygon fill="#FBFB77" filter="url(#f1)" points="51,92.4297,51,117.4297,196,117.4297,196,102.4297,186,92.4297,51,92.4297" style="stroke: #A80036; stroke-width: 1.0;"/><line style="stroke: #A80036; stroke-width: 1.0;" x1="186" x2="186" y1="92.4297" y2="102.4297"/><line style="stroke: #A80036; stroke-width: 1.0;" x1="196" x2="186" y1="102.4297" y2="102.4297"/><text fill="#000000" font-family="sans-serif" font-size="13" lengthAdjust="spacingAndGlyphs" textLength="124" x="57" y="109.4966">Check if item exists</text><polygon fill="#A80036" points="345,143.5625,355,147.5625,345,151.5625,349,147.5625" style="stroke: #A80036; stroke-width: 1.0;"/><line style="stroke: #A80036; stroke-width: 1.0;" x1="131" x2="351" y1="147.5625" y2="147.5625"/><text fill="#000000" font-family="sans-serif" font-size="13" lengthAdjust="spacingAndGlyphs" textLength="102" x="138" y="142.6294">findItem(itemId)</text><line style="stroke: #A80036; stroke-width: 1.0;" x1="367" x2="409" y1="176.8281" y2="176.8281"/><line style="stroke: #A80036; stroke-width: 1.0;" x1="409" x2="409" y1="176.8281" y2="189.8281"/><line style="stroke: #A80036; stroke-width: 1.0;" x1="368" x2="409" y1="189.8281" y2="189.8281"/><polygon fill="#A80036" points="378,185.8281,368,189.8281,378,193.8281,374,189.8281" style="stroke: #A80036; stroke-width: 1.0;"/><text fill="#000000" font-family="sans-serif" font-size="13" lengthAdjust="spacingAndGlyphs" textLength="92" x="374" y="171.7622">lookup(itemId)</text><rect fill="none" height="343.2656" style="stroke: #000000; stroke-width: 2.0;" width="614" x="22" y="204.8281"/><polygon fill="#EEEEEE" points="22,204.8281,86,204.8281,86,211.8281,76,221.8281,22,221.8281,22,204.8281" style="stroke: #000000; stroke-width: 2.0;"/><text fill="#000000" font-family="sans-serif" font-size="13" font-weight="bold" lengthAdjust="spacingAndGlyphs" textLength="19" x="37" y="217.895">alt</text><text fill="#000000" font-family="sans-serif" font-size="11" font-weight="bold" lengthAdjust="spacingAndGlyphs" textLength="79" x="101" y="217.0386">[item found]</text><polygon fill="#A80036" points="142,238.9609,132,242.9609,142,246.9609,138,242.9609" style="stroke: #A80036; stroke-width: 1.0;"/><line style="stroke: #A80036; stroke-width: 1.0; stroke-dasharray: 2.0,2.0;" x1="136" x2="356" y1="242.9609" y2="242.9609"/><text fill="#000000" font-family="sans-serif" font-size="13" lengthAdjust="spacingAndGlyphs" textLength="29" x="148" y="238.0278">item</text><line style="stroke: #000000; stroke-width: 1.0; stroke-dasharray: 2.0,2.0;" x1="22" x2="636" y1="252.0938" y2="252.0938"/><text fill="#000000" font-family="sans-serif" font-size="11" font-weight="bold" lengthAdjust="spacingAndGlyphs" textLength="72" x="27" y="262.3042">[not found]</text><polygon fill="#A80036" points="142,282.8984,132,286.8984,142,290.8984,138,286.8984" style="stroke: #A80036; stroke-width: 1.0;"/><line style="stroke: #A80036; stroke-width: 1.0; stroke-dasharray: 2.0,2.0;" x1="136" x2="356" y1="286.8984" y2="286.8984"/><text fill="#000000" font-family="sans-serif" font-size="13" lengthAdjust="spacingAndGlyphs" textLength="22" x="148" y="281.9653">null</text><polygon fill="#A80036" points="345,312.0313,355,316.0313,345,320.0313,349,316.0313" style="stroke: #A80036; stroke-width: 1.0;"/><line style="stroke: #A80036; stroke-width: 1.0;" x1="131" x2="351" y1="316.0313" y2="316.0313"/><text fill="#000000" font-family="sans-serif" font-size="13" lengthAdjust="spacingAndGlyphs" textLength="202" x="138" y="311.0981">createItem(itemId, contentURL)</text><polygon fill="#A80036" points="531,341.1641,541,345.1641,531,349.1641,535,345.1641" style="stroke: #A80036; stroke-width: 1.0;"/><line style="stroke: #A80036; stroke-width: 1.0;" x1="367" x2="537" y1="345.1641" y2="345.1641"/><text fill="#000000" font-family="sans-serif" font-size="13" lengthAdjust="spacingAndGlyphs" textLength="157" x="374" y="340.231">new(itemId, contentURL)</text><polygon fill="#A80036" points="142,370.2969,132,374.2969,142,378.2969,138,374.2969" style="stroke: #A80036; stroke-width: 1.0;"/><line style="stroke: #A80036; stroke-width: 1.0; stroke-dasharray: 2.0,2.0;" x1="136" x2="356" y1="374.2969" y2="374.2969"/><text fill="#000000" font-family="sans-serif" font-size="13" lengthAdjust="spacingAndGlyphs" textLength="29" x="148" y="369.3638">item</text><polygon fill="#A80036" points="345,399.4297,355,403.4297,345,407.4297,349,403.4297" style="stroke: #A80036; stroke-width: 1.0;"/><line style="stroke: #A80036; stroke-width: 1.0;" x1="131" x2="351" y1="403.4297" y2="403.4297"/><text fill="#000000" font-family="sans-serif" font-size="13" lengthAdjust="spacingAndGlyphs" textLength="98" x="138" y="398.4966">loadMetadata()</text><polygon fill="#FBFB77" filter="url(#f1)" points="218,416.5625,218,441.5625,502,441.5625,502,426.5625,492,416.5625,218,416.5625" style="stroke: #A80036; stroke-width: 1.0;"/><line style="stroke: #A80036; stroke-width: 1.0;" x1="492" x2="492" y1="416.5625" y2="426.5625"/><line style="stroke: #A80036; stroke-width: 1.0;" x1="502" x2="492" y1="426.5625" y2="426.5625"/><text fill="#000000" font-family="sans-serif" font-size="13" lengthAdjust="spacingAndGlyphs" textLength="263" x="224" y="433.6294">Download and parse manifest, save in db</text><polygon fill="#A80036" points="142,467.6953,132,471.6953,142,475.6953,138,471.6953" style="stroke: #A80036; stroke-width: 1.0;"/><line style="stroke: #A80036; stroke-width: 1.0; stroke-dasharray: 2.0,2.0;" x1="136" x2="356" y1="471.6953" y2="471.6953"/><text fill="#000000" font-family="sans-serif" font-size="13" lengthAdjust="spacingAndGlyphs" textLength="114" x="148" y="466.7622">onTracksAvailable</text><polygon fill="#A80036" points="142,496.8281,132,500.8281,142,504.8281,138,500.8281" style="stroke: #A80036; stroke-width: 1.0;"/><line style="stroke: #A80036; stroke-width: 1.0; stroke-dasharray: 2.0,2.0;" x1="136" x2="356" y1="500.8281" y2="500.8281"/><text fill="#000000" font-family="sans-serif" font-size="13" lengthAdjust="spacingAndGlyphs" textLength="139" x="148" y="495.895">onDownloadMetadata</text><polygon fill="#FBFB77" filter="url(#f1)" points="32,513.9609,32,538.9609,215,538.9609,215,523.9609,205,513.9609,32,513.9609" style="stroke: #A80036; stroke-width: 1.0;"/><line style="stroke: #A80036; stroke-width: 1.0;" x1="205" x2="205" y1="513.9609" y2="523.9609"/><line style="stroke: #A80036; stroke-width: 1.0;" x1="215" x2="205" y1="523.9609" y2="523.9609"/><ellipse cx="43.5" cy="526.5938" fill="#000000" rx="2.5" ry="2.5" style="stroke: #000000; stroke-width: 0.0;"/><text fill="#000000" font-family="sans-serif" font-size="13" lengthAdjust="spacingAndGlyphs" textLength="25" x="49" y="531.0278">See</text><text fill="#000000" font-family="sans-serif" font-size="13" font-style="italic" lengthAdjust="spacingAndGlyphs" textLength="94" x="78" y="531.0278">track-selection</text><text fill="#000000" font-family="sans-serif" font-size="13" lengthAdjust="spacingAndGlyphs" textLength="24" x="176" y="531.0278">flow</text><polygon fill="#FBFB77" filter="url(#f1)" points="8,560.0938,8,585.0938,241,585.0938,241,570.0938,231,560.0938,8,560.0938" style="stroke: #A80036; stroke-width: 1.0;"/><line style="stroke: #A80036; stroke-width: 1.0;" x1="231" x2="231" y1="560.0938" y2="570.0938"/><line style="stroke: #A80036; stroke-width: 1.0;" x1="241" x2="231" y1="570.0938" y2="570.0938"/><text fill="#000000" font-family="sans-serif" font-size="13" lengthAdjust="spacingAndGlyphs" textLength="212" x="14" y="577.1606">app is ready to start downloading</text><polygon fill="#A80036" points="531,611.2266,541,615.2266,531,619.2266,535,615.2266" style="stroke: #A80036; stroke-width: 1.0;"/><line style="stroke: #A80036; stroke-width: 1.0;" x1="131" x2="537" y1="615.2266" y2="615.2266"/><text fill="#000000" font-family="sans-serif" font-size="13" lengthAdjust="spacingAndGlyphs" textLength="102" x="138" y="610.2935">startDownload()</text></g></svg>