<?xml version="1.0" encoding="UTF-8" standalone="yes"?><svg xmlns="http://www.w3.org/2000/svg" xmlns:xlink="http://www.w3.org/1999/xlink" height="251px" style="width:538px;height:251px;" version="1.1" viewBox="0 0 538 251" width="538px"><defs><filter height="300%" id="f1" width="300%" x="-1" y="-1"><feGaussianBlur result="blurOut" stdDeviation="2.0"/><feColorMatrix in="blurOut" result="blurOut2" type="matrix" values="0 0 0 0 0 0 0 0 0 0 0 0 0 0 0 0 0 0 .4 0"/><feOffset dx="4.0" dy="4.0" in="blurOut2" result="blurOut3"/><feBlend in="SourceGraphic" in2="blurOut3" mode="normal"/></filter></defs><g><line style="stroke: #A80036; stroke-width: 1.0;" x1="94" x2="94" y1="38.2969" y2="145.6953"/><line style="stroke: #A80036; stroke-width: 1.0; stroke-dasharray: 1.0,4.0;" x1="94" x2="94" y1="145.6953" y2="173.6953"/><line style="stroke: #A80036; stroke-width: 1.0;" x1="94" x2="94" y1="173.6953" y2="212.8281"/><line style="stroke: #A80036; stroke-width: 1.0;" x1="453.5" x2="453.5" y1="38.2969" y2="145.6953"/><line style="stroke: #A80036; stroke-width: 1.0; stroke-dasharray: 1.0,4.0;" x1="453.5" x2="453.5" y1="145.6953" y2="173.6953"/><line style="stroke: #A80036; stroke-width: 1.0;" x1="453.5" x2="453.5" y1="173.6953" y2="212.8281"/><rect fill="#FEFECE" filter="url(#f1)" height="30.2969" style="stroke: #A80036; stroke-width: 1.5;" width="41" x="72" y="3"/><text fill="#000000" font-family="sans-serif" font-size="14" lengthAdjust="spacingAndGlyphs" textLength="27" x="79" y="22.9951">App</text><rect fill="#FEFECE" filter="url(#f1)" height="30.2969" style="stroke: #A80036; stroke-width: 1.5;" width="41" x="72" y="211.8281"/><text fill="#000000" font-family="sans-serif" font-size="14" lengthAdjust="spacingAndGlyphs" textLength="27" x="79" y="231.8232">App</text><rect fill="#FEFECE" filter="url(#f1)" height="30.2969" style="stroke: #A80036; stroke-width: 1.5;" width="156" x="373.5" y="3"/><text fill="#000000" font-family="sans-serif" font-size="14" lengthAdjust="spacingAndGlyphs" textLength="142" x="380.5" y="22.9951">LocalAssetsManager</text><rect fill="#FEFECE" filter="url(#f1)" height="30.2969" style="stroke: #A80036; stroke-width: 1.5;" width="156" x="373.5" y="211.8281"/><text fill="#000000" font-family="sans-serif" font-size="14" lengthAdjust="spacingAndGlyphs" textLength="142" x="380.5" y="231.8232">LocalAssetsManager</text><polygon fill="#A80036" points="441.5,65.2969,451.5,69.2969,441.5,73.2969,445.5,69.2969" style="stroke: #A80036; stroke-width: 1.0;"/><line style="stroke: #A80036; stroke-width: 1.0;" x1="94.5" x2="447.5" y1="69.2969" y2="69.2969"/><text fill="#000000" font-family="sans-serif" font-size="13" lengthAdjust="spacingAndGlyphs" textLength="335" x="101.5" y="64.3638">getPreferredDownloadableMediaSource(mediaEntry)</text><polygon fill="#A80036" points="105.5,94.4297,95.5,98.4297,105.5,102.4297,101.5,98.4297" style="stroke: #A80036; stroke-width: 1.0;"/><line style="stroke: #A80036; stroke-width: 1.0; stroke-dasharray: 2.0,2.0;" x1="99.5" x2="452.5" y1="98.4297" y2="98.4297"/><text fill="#000000" font-family="sans-serif" font-size="13" lengthAdjust="spacingAndGlyphs" textLength="85" x="111.5" y="93.4966">mediaSource</text><polygon fill="#FBFB77" filter="url(#f1)" points="8,111.5625,8,136.5625,178,136.5625,178,121.5625,168,111.5625,8,111.5625" style="stroke: #A80036; stroke-width: 1.0;"/><line style="stroke: #A80036; stroke-width: 1.0;" x1="168" x2="168" y1="111.5625" y2="121.5625"/><line style="stroke: #A80036; stroke-width: 1.0;" x1="178" x2="168" y1="121.5625" y2="121.5625"/><text fill="#000000" font-family="sans-serif" font-size="13" lengthAdjust="spacingAndGlyphs" textLength="149" x="14" y="128.6294">download mediaSource</text><polygon fill="#A80036" points="441.5,190.6953,451.5,194.6953,441.5,198.6953,445.5,194.6953" style="stroke: #A80036; stroke-width: 1.0;"/><line style="stroke: #A80036; stroke-width: 1.0;" x1="94.5" x2="447.5" y1="194.6953" y2="194.6953"/><text fill="#000000" font-family="sans-serif" font-size="13" lengthAdjust="spacingAndGlyphs" textLength="302" x="101.5" y="189.7622">assetDownloadFinished(mediaSource, location)</text></g></svg>