<?xml version="1.0" encoding="UTF-8" standalone="yes"?><svg xmlns="http://www.w3.org/2000/svg" xmlns:xlink="http://www.w3.org/1999/xlink" height="299px" style="width:864px;height:299px;" version="1.1" viewBox="0 0 864 299" width="864px"><defs><filter height="300%" id="f1" width="300%" x="-1" y="-1"><feGaussianBlur result="blurOut" stdDeviation="2.0"/><feColorMatrix in="blurOut" result="blurOut2" type="matrix" values="0 0 0 0 0 0 0 0 0 0 0 0 0 0 0 0 0 0 .4 0"/><feOffset dx="4.0" dy="4.0" in="blurOut2" result="blurOut3"/><feBlend in="SourceGraphic" in2="blurOut3" mode="normal"/></filter></defs><g><line style="stroke: #A80036; stroke-width: 1.0;" x1="30" x2="30" y1="38.2969" y2="193.9609"/><line style="stroke: #A80036; stroke-width: 1.0; stroke-dasharray: 1.0,4.0;" x1="30" x2="30" y1="193.9609" y2="221.9609"/><line style="stroke: #A80036; stroke-width: 1.0;" x1="30" x2="30" y1="221.9609" y2="261.0938"/><line style="stroke: #A80036; stroke-width: 1.0;" x1="356.5" x2="356.5" y1="38.2969" y2="193.9609"/><line style="stroke: #A80036; stroke-width: 1.0; stroke-dasharray: 1.0,4.0;" x1="356.5" x2="356.5" y1="193.9609" y2="221.9609"/><line style="stroke: #A80036; stroke-width: 1.0;" x1="356.5" x2="356.5" y1="221.9609" y2="261.0938"/><line style="stroke: #A80036; stroke-width: 1.0;" x1="559.5" x2="559.5" y1="38.2969" y2="193.9609"/><line style="stroke: #A80036; stroke-width: 1.0; stroke-dasharray: 1.0,4.0;" x1="559.5" x2="559.5" y1="193.9609" y2="221.9609"/><line style="stroke: #A80036; stroke-width: 1.0;" x1="559.5" x2="559.5" y1="221.9609" y2="261.0938"/><line style="stroke: #A80036; stroke-width: 1.0;" x1="770.5" x2="770.5" y1="38.2969" y2="193.9609"/><line style="stroke: #A80036; stroke-width: 1.0; stroke-dasharray: 1.0,4.0;" x1="770.5" x2="770.5" y1="193.9609" y2="221.9609"/><line style="stroke: #A80036; stroke-width: 1.0;" x1="770.5" x2="770.5" y1="221.9609" y2="261.0938"/><rect fill="#FEFECE" filter="url(#f1)" height="30.2969" style="stroke: #A80036; stroke-width: 1.5;" width="41" x="8" y="3"/><text fill="#000000" font-family="sans-serif" font-size="14" lengthAdjust="spacingAndGlyphs" textLength="27" x="15" y="22.9951">App</text><rect fill="#FEFECE" filter="url(#f1)" height="30.2969" style="stroke: #A80036; stroke-width: 1.5;" width="41" x="8" y="260.0938"/><text fill="#000000" font-family="sans-serif" font-size="14" lengthAdjust="spacingAndGlyphs" textLength="27" x="15" y="280.0889">App</text><rect fill="#FEFECE" filter="url(#f1)" height="30.2969" style="stroke: #A80036; stroke-width: 1.5;" width="156" x="276.5" y="3"/><text fill="#000000" font-family="sans-serif" font-size="14" lengthAdjust="spacingAndGlyphs" textLength="142" x="283.5" y="22.9951">LocalAssetsManager</text><rect fill="#FEFECE" filter="url(#f1)" height="30.2969" style="stroke: #A80036; stroke-width: 1.5;" width="156" x="276.5" y="260.0938"/><text fill="#000000" font-family="sans-serif" font-size="14" lengthAdjust="spacingAndGlyphs" textLength="142" x="283.5" y="280.0889">LocalAssetsManager</text><rect fill="#FEFECE" filter="url(#f1)" height="30.2969" style="stroke: #A80036; stroke-width: 1.5;" width="222" x="446.5" y="3"/><text fill="#000000" font-family="sans-serif" font-size="14" lengthAdjust="spacingAndGlyphs" textLength="208" x="453.5" y="22.9951">AVAssetDownloadURLSession</text><rect fill="#FEFECE" filter="url(#f1)" height="30.2969" style="stroke: #A80036; stroke-width: 1.5;" width="222" x="446.5" y="260.0938"/><text fill="#000000" font-family="sans-serif" font-size="14" lengthAdjust="spacingAndGlyphs" textLength="208" x="453.5" y="280.0889">AVAssetDownloadURLSession</text><rect fill="#FEFECE" filter="url(#f1)" height="30.2969" style="stroke: #A80036; stroke-width: 1.5;" width="173" x="682.5" y="3"/><text fill="#000000" font-family="sans-serif" font-size="14" lengthAdjust="spacingAndGlyphs" textLength="159" x="689.5" y="22.9951">AVAssetDownloadTask</text><rect fill="#FEFECE" filter="url(#f1)" height="30.2969" style="stroke: #A80036; stroke-width: 1.5;" width="173" x="682.5" y="260.0938"/><text fill="#000000" font-family="sans-serif" font-size="14" lengthAdjust="spacingAndGlyphs" textLength="159" x="689.5" y="280.0889">AVAssetDownloadTask</text><polygon fill="#A80036" points="344.5,65.2969,354.5,69.2969,344.5,73.2969,348.5,69.2969" style="stroke: #A80036; stroke-width: 1.0;"/><line style="stroke: #A80036; stroke-width: 1.0;" x1="30.5" x2="350.5" y1="69.2969" y2="69.2969"/><text fill="#000000" font-family="sans-serif" font-size="13" lengthAdjust="spacingAndGlyphs" textLength="215" x="37.5" y="64.3638">prepareForDownload(mediaEntry)</text><polygon fill="#A80036" points="41.5,94.4297,31.5,98.4297,41.5,102.4297,37.5,98.4297" style="stroke: #A80036; stroke-width: 1.0;"/><line style="stroke: #A80036; stroke-width: 1.0; stroke-dasharray: 2.0,2.0;" x1="35.5" x2="355.5" y1="98.4297" y2="98.4297"/><text fill="#000000" font-family="sans-serif" font-size="13" lengthAdjust="spacingAndGlyphs" textLength="145" x="47.5" y="93.4966">urlAsset, mediaSource</text><polygon fill="#A80036" points="547.5,123.5625,557.5,127.5625,547.5,131.5625,551.5,127.5625" style="stroke: #A80036; stroke-width: 1.0;"/><line style="stroke: #A80036; stroke-width: 1.0;" x1="30.5" x2="553.5" y1="127.5625" y2="127.5625"/><text fill="#000000" font-family="sans-serif" font-size="13" lengthAdjust="spacingAndGlyphs" textLength="268" x="37.5" y="122.6294">makeAssetDownloadTask(asset: urlAsset)</text><polygon fill="#A80036" points="41.5,152.6953,31.5,156.6953,41.5,160.6953,37.5,156.6953" style="stroke: #A80036; stroke-width: 1.0;"/><line style="stroke: #A80036; stroke-width: 1.0; stroke-dasharray: 2.0,2.0;" x1="35.5" x2="558.5" y1="156.6953" y2="156.6953"/><text fill="#000000" font-family="sans-serif" font-size="13" lengthAdjust="spacingAndGlyphs" textLength="145" x="47.5" y="151.7622">AVAssetDownloadTask</text><polygon fill="#A80036" points="759,181.8281,769,185.8281,759,189.8281,763,185.8281" style="stroke: #A80036; stroke-width: 1.0;"/><line style="stroke: #A80036; stroke-width: 1.0;" x1="30.5" x2="765" y1="185.8281" y2="185.8281"/><text fill="#000000" font-family="sans-serif" font-size="13" lengthAdjust="spacingAndGlyphs" textLength="49" x="37.5" y="180.895">resume</text><polygon fill="#A80036" points="344.5,238.9609,354.5,242.9609,344.5,246.9609,348.5,242.9609" style="stroke: #A80036; stroke-width: 1.0;"/><line style="stroke: #A80036; stroke-width: 1.0;" x1="30.5" x2="350.5" y1="242.9609" y2="242.9609"/><text fill="#000000" font-family="sans-serif" font-size="13" lengthAdjust="spacingAndGlyphs" textLength="302" x="37.5" y="238.0278">assetDownloadFinished(mediaSource, location)</text></g></svg>