<?xml version="1.0" encoding="UTF-8" standalone="yes"?><svg xmlns="http://www.w3.org/2000/svg" xmlns:xlink="http://www.w3.org/1999/xlink" height="270px" style="width:571px;height:270px;" version="1.1" viewBox="0 0 571 270" width="571px"><defs><filter height="300%" id="f1" width="300%" x="-1" y="-1"><feGaussianBlur result="blurOut" stdDeviation="2.0"/><feColorMatrix in="blurOut" result="blurOut2" type="matrix" values="0 0 0 0 0 0 0 0 0 0 0 0 0 0 0 0 0 0 .4 0"/><feOffset dx="4.0" dy="4.0" in="blurOut2" result="blurOut3"/><feBlend in="SourceGraphic" in2="blurOut3" mode="normal"/></filter></defs><g><line style="stroke: #A80036; stroke-width: 1.0;" x1="94" x2="94" y1="38.2969" y2="164.8281"/><line style="stroke: #A80036; stroke-width: 1.0; stroke-dasharray: 1.0,4.0;" x1="94" x2="94" y1="164.8281" y2="192.8281"/><line style="stroke: #A80036; stroke-width: 1.0;" x1="94" x2="94" y1="192.8281" y2="231.9609"/><line style="stroke: #A80036; stroke-width: 1.0;" x1="255" x2="255" y1="38.2969" y2="164.8281"/><line style="stroke: #A80036; stroke-width: 1.0; stroke-dasharray: 1.0,4.0;" x1="255" x2="255" y1="164.8281" y2="192.8281"/><line style="stroke: #A80036; stroke-width: 1.0;" x1="255" x2="255" y1="192.8281" y2="231.9609"/><line style="stroke: #A80036; stroke-width: 1.0;" x1="484" x2="484" y1="38.2969" y2="164.8281"/><line style="stroke: #A80036; stroke-width: 1.0; stroke-dasharray: 1.0,4.0;" x1="484" x2="484" y1="164.8281" y2="192.8281"/><line style="stroke: #A80036; stroke-width: 1.0;" x1="484" x2="484" y1="192.8281" y2="231.9609"/><rect fill="#FEFECE" filter="url(#f1)" height="30.2969" style="stroke: #A80036; stroke-width: 1.5;" width="169" x="8" y="3"/><text fill="#000000" font-family="sans-serif" font-size="14" lengthAdjust="spacingAndGlyphs" textLength="155" x="15" y="22.9951">ContentManager class</text><rect fill="#FEFECE" filter="url(#f1)" height="30.2969" style="stroke: #A80036; stroke-width: 1.5;" width="169" x="8" y="230.9609"/><text fill="#000000" font-family="sans-serif" font-size="14" lengthAdjust="spacingAndGlyphs" textLength="155" x="15" y="250.9561">ContentManager class</text><rect fill="#FEFECE" filter="url(#f1)" height="30.2969" style="stroke: #A80036; stroke-width: 1.5;" width="124" x="191" y="3"/><text fill="#000000" font-family="sans-serif" font-size="14" lengthAdjust="spacingAndGlyphs" textLength="110" x="198" y="22.9951">app: Application</text><rect fill="#FEFECE" filter="url(#f1)" height="30.2969" style="stroke: #A80036; stroke-width: 1.5;" width="124" x="191" y="230.9609"/><text fill="#000000" font-family="sans-serif" font-size="14" lengthAdjust="spacingAndGlyphs" textLength="110" x="198" y="250.9561">app: Application</text><rect fill="#FEFECE" filter="url(#f1)" height="30.2969" style="stroke: #A80036; stroke-width: 1.5;" width="160" x="402" y="3"/><text fill="#000000" font-family="sans-serif" font-size="14" lengthAdjust="spacingAndGlyphs" textLength="146" x="409" y="22.9951">cm: ContentManager</text><rect fill="#FEFECE" filter="url(#f1)" height="30.2969" style="stroke: #A80036; stroke-width: 1.5;" width="160" x="402" y="230.9609"/><text fill="#000000" font-family="sans-serif" font-size="14" lengthAdjust="spacingAndGlyphs" textLength="146" x="409" y="250.9561">cm: ContentManager</text><polygon fill="#A80036" points="105.5,65.2969,95.5,69.2969,105.5,73.2969,101.5,69.2969" style="stroke: #A80036; stroke-width: 1.0;"/><line style="stroke: #A80036; stroke-width: 1.0;" x1="99.5" x2="254" y1="69.2969" y2="69.2969"/><text fill="#000000" font-family="sans-serif" font-size="13" lengthAdjust="spacingAndGlyphs" textLength="133" x="111.5" y="64.3638">getInstance(context)</text><polygon fill="#A80036" points="243,94.4297,253,98.4297,243,102.4297,247,98.4297" style="stroke: #A80036; stroke-width: 1.0;"/><line style="stroke: #A80036; stroke-width: 1.0;" x1="94.5" x2="249" y1="98.4297" y2="98.4297"/><text fill="#000000" font-family="sans-serif" font-size="13" lengthAdjust="spacingAndGlyphs" textLength="20" x="101.5" y="93.4966">cm</text><polygon fill="#A80036" points="472,123.5625,482,127.5625,472,131.5625,476,127.5625" style="stroke: #A80036; stroke-width: 1.0;"/><line style="stroke: #A80036; stroke-width: 1.0;" x1="255" x2="478" y1="127.5625" y2="127.5625"/><text fill="#000000" font-family="sans-serif" font-size="13" lengthAdjust="spacingAndGlyphs" textLength="205" x="262" y="122.6294">addDownloadStateListener(this)</text><polygon fill="#A80036" points="472,152.6953,482,156.6953,472,160.6953,476,156.6953" style="stroke: #A80036; stroke-width: 1.0;"/><line style="stroke: #A80036; stroke-width: 1.0;" x1="255" x2="478" y1="156.6953" y2="156.6953"/><text fill="#000000" font-family="sans-serif" font-size="13" lengthAdjust="spacingAndGlyphs" textLength="40" x="262" y="151.7622">start()</text><polygon fill="#A80036" points="472,209.8281,482,213.8281,472,217.8281,476,213.8281" style="stroke: #A80036; stroke-width: 1.0;"/><line style="stroke: #A80036; stroke-width: 1.0;" x1="255" x2="478" y1="213.8281" y2="213.8281"/><text fill="#000000" font-family="sans-serif" font-size="13" lengthAdjust="spacingAndGlyphs" textLength="38" x="262" y="208.895">stop()</text></g></svg>