<?xml version="1.0" encoding="UTF-8" standalone="yes"?><svg xmlns="http://www.w3.org/2000/svg" xmlns:xlink="http://www.w3.org/1999/xlink" height="308px" style="width:552px;height:308px;" version="1.1" viewBox="0 0 552 308" width="552px"><defs><filter height="300%" id="f1" width="300%" x="-1" y="-1"><feGaussianBlur result="blurOut" stdDeviation="2.0"/><feColorMatrix in="blurOut" result="blurOut2" type="matrix" values="0 0 0 0 0 0 0 0 0 0 0 0 0 0 0 0 0 0 .4 0"/><feOffset dx="4.0" dy="4.0" in="blurOut2" result="blurOut3"/><feBlend in="SourceGraphic" in2="blurOut3" mode="normal"/></filter></defs><g><rect fill="#FFFFFF" filter="url(#f1)" height="90.2031" style="stroke: #000000; stroke-width: 2.0;" width="460" x="83" y="162.6953"/><rect fill="#FFFFFF" height="43.9375" style="stroke: none; stroke-width: 1.0;" width="460" x="83" y="208.9609"/><line style="stroke: #A80036; stroke-width: 1.0; stroke-dasharray: 5.0,5.0;" x1="115" x2="115" y1="38.2969" y2="269.8984"/><line style="stroke: #A80036; stroke-width: 1.0; stroke-dasharray: 5.0,5.0;" x1="427" x2="427" y1="38.2969" y2="269.8984"/><rect fill="#FEFECE" filter="url(#f1)" height="30.2969" style="stroke: #A80036; stroke-width: 1.5;" width="41" x="93" y="3"/><text fill="#000000" font-family="sans-serif" font-size="14" lengthAdjust="spacingAndGlyphs" textLength="27" x="100" y="22.9951">App</text><rect fill="#FEFECE" filter="url(#f1)" height="30.2969" style="stroke: #A80036; stroke-width: 1.5;" width="41" x="93" y="268.8984"/><text fill="#000000" font-family="sans-serif" font-size="14" lengthAdjust="spacingAndGlyphs" textLength="27" x="100" y="288.8936">App</text><rect fill="#FEFECE" filter="url(#f1)" height="30.2969" style="stroke: #A80036; stroke-width: 1.5;" width="207" x="322" y="3"/><text fill="#000000" font-family="sans-serif" font-size="14" lengthAdjust="spacingAndGlyphs" textLength="193" x="329" y="22.9951">Kaltura LocalAssetsManager</text><rect fill="#FEFECE" filter="url(#f1)" height="30.2969" style="stroke: #A80036; stroke-width: 1.5;" width="207" x="322" y="268.8984"/><text fill="#000000" font-family="sans-serif" font-size="14" lengthAdjust="spacingAndGlyphs" textLength="193" x="329" y="288.8936">Kaltura LocalAssetsManager</text><polygon fill="#FBFB77" filter="url(#f1)" points="8,53.2969,8,78.2969,219,78.2969,219,63.2969,209,53.2969,8,53.2969" style="stroke: #A80036; stroke-width: 1.0;"/><line style="stroke: #A80036; stroke-width: 1.0;" x1="209" x2="209" y1="53.2969" y2="63.2969"/><line style="stroke: #A80036; stroke-width: 1.0;" x1="219" x2="209" y1="63.2969" y2="63.2969"/><text fill="#000000" font-family="sans-serif" font-size="13" lengthAdjust="spacingAndGlyphs" textLength="128" x="14" y="70.3638">Downloads Media to</text><text fill="#000000" font-family="sans-serif" font-size="13" font-style="italic" lengthAdjust="spacingAndGlyphs" textLength="58" x="146" y="70.3638">localPath</text><line style="stroke: #A80036; stroke-width: 1.0;" x1="425.5" x2="415.5" y1="108.4297" y2="104.4297"/><line style="stroke: #A80036; stroke-width: 1.0;" x1="425.5" x2="415.5" y1="108.4297" y2="112.4297"/><line style="stroke: #A80036; stroke-width: 1.0;" x1="115.5" x2="426.5" y1="108.4297" y2="108.4297"/><text fill="#000000" font-family="sans-serif" font-size="13" lengthAdjust="spacingAndGlyphs" textLength="288" x="122.5" y="103.4966">registerAsset(entryConfig, flavorId, localPath)</text><polygon fill="#FBFB77" filter="url(#f1)" points="348,121.5625,348,146.5625,502,146.5625,502,131.5625,492,121.5625,348,121.5625" style="stroke: #A80036; stroke-width: 1.0;"/><line style="stroke: #A80036; stroke-width: 1.0;" x1="492" x2="492" y1="121.5625" y2="131.5625"/><line style="stroke: #A80036; stroke-width: 1.0;" x1="502" x2="492" y1="131.5625" y2="131.5625"/><text fill="#000000" font-family="sans-serif" font-size="13" lengthAdjust="spacingAndGlyphs" textLength="133" x="354" y="138.6294">SDK acquires license</text><rect fill="none" height="90.2031" style="stroke: #000000; stroke-width: 2.0;" width="460" x="83" y="162.6953"/><polygon fill="#EEEEEE" points="83,162.6953,147,162.6953,147,169.6953,137,179.6953,83,179.6953,83,162.6953" style="stroke: #000000; stroke-width: 2.0;"/><text fill="#000000" font-family="sans-serif" font-size="13" font-weight="bold" lengthAdjust="spacingAndGlyphs" textLength="19" x="98" y="175.7622">alt</text><text fill="#000000" font-family="sans-serif" font-size="11" font-weight="bold" lengthAdjust="spacingAndGlyphs" textLength="62" x="162" y="174.9058">[Success]</text><line style="stroke: #A80036; stroke-width: 1.0;" x1="115.5" x2="125.5" y1="200.8281" y2="196.8281"/><line style="stroke: #A80036; stroke-width: 1.0;" x1="115.5" x2="125.5" y1="200.8281" y2="204.8281"/><line style="stroke: #A80036; stroke-width: 1.0;" x1="115.5" x2="426.5" y1="200.8281" y2="200.8281"/><text fill="#000000" font-family="sans-serif" font-size="13" lengthAdjust="spacingAndGlyphs" textLength="53" x="132.5" y="195.895">Success</text><line style="stroke: #000000; stroke-width: 1.0; stroke-dasharray: 2.0,2.0;" x1="83" x2="543" y1="209.9609" y2="209.9609"/><text fill="#000000" font-family="sans-serif" font-size="11" font-weight="bold" lengthAdjust="spacingAndGlyphs" textLength="55" x="88" y="220.1714">[Failure]</text><line style="stroke: #A80036; stroke-width: 1.0;" x1="115.5" x2="125.5" y1="244.7656" y2="240.7656"/><line style="stroke: #A80036; stroke-width: 1.0;" x1="115.5" x2="125.5" y1="244.7656" y2="248.7656"/><line style="stroke: #A80036; stroke-width: 1.0;" x1="115.5" x2="426.5" y1="244.7656" y2="244.7656"/><text fill="#000000" font-family="sans-serif" font-size="13" lengthAdjust="spacingAndGlyphs" textLength="42" x="132.5" y="239.8325">Failure</text></g></svg>