<svg width="24" height="24" viewBox="0 0 24 24" fill="none" xmlns="http://www.w3.org/2000/svg">
<path d="M13.6799 5.26846L13.7661 5.35984L18.7661 11.3598L18.8123 11.4197L18.8729 11.5154L18.9113 11.5922L18.9462 11.6816L18.968 11.7571L18.9823 11.8227L18.9941 11.912L18.9979 12.0005L18.9921 12.1086L18.9821 12.1776L18.9572 12.283L18.9113 12.4078L18.873 12.4846L18.8064 12.589L18.7661 12.6402L13.7661 18.6402L13.6799 18.7316C13.3168 19.0709 12.7494 19.0946 12.3577 18.7682C11.9661 18.4419 11.8871 17.8795 12.1554 17.4612L12.2297 17.3598L15.8623 13L6 13.0244C5.44772 13.0244 5 12.5767 5 12.0244C5 11.5116 5.38604 11.0889 5.88338 11.0311L6 11.0244L15.8623 11L12.2297 6.64021C11.8761 6.21593 11.9335 5.58537 12.3577 5.2318C12.7494 4.90544 13.3168 4.92918 13.6799 5.26846Z" fill="#006EFA"/>
</svg>
