<svg width="80" height="32" viewBox="0 0 80 32" fill="none" xmlns="http://www.w3.org/2000/svg">
<path d="M0 4C0 1.79086 1.79086 0 4 0H76C78.2091 0 80 1.79086 80 4V28C80 30.2091 78.2091 32 76 32H4C1.79086 32 0 30.2091 0 28V4Z" fill="black" fill-opacity="0.6"/>
<path d="M27 21H25.5627V10.385C25.5627 9.83267 25.115 9.38495 24.5627 9.38495H17V8C17 7.44772 17.4477 7 18 7H27.0004C27.5527 7 28 7.44771 28 8V20C28 20.5523 27.5523 21 27 21Z" fill="white"/>
<path fill-rule="evenodd" clip-rule="evenodd" d="M24 12C24 11.4477 23.5523 11 23 11H13C12.4477 11 12 11.4477 12 12V24C12 24.5523 12.4477 25 13 25H23C23.5523 25 24 24.5523 24 24V12ZM22 14C22 13.4477 21.5523 13 21 13H15C14.4477 13 14 13.4477 14 14C14 14.5523 14.4477 15 15 15H21C21.5523 15 22 14.5523 22 14ZM21 17C21.5523 17 22 17.4477 22 18C22 18.5523 21.5523 19 21 19H15C14.4477 19 14 18.5523 14 18C14 17.4477 14.4477 17 15 17H21ZM22 22C22 21.4477 21.5523 21 21 21H15C14.4477 21 14 21.4477 14 22C14 22.5523 14.4477 23 15 23H21C21.5523 23 22 22.5523 22 22Z" fill="white"/>
<path d="M40.886 21.168C40.3073 21.168 39.7613 21.07 39.248 20.874C38.7347 20.6687 38.282 20.37 37.89 19.978C37.5073 19.586 37.204 19.1007 36.98 18.522C36.756 17.934 36.644 17.2573 36.644 16.492C36.644 15.736 36.7607 15.064 36.994 14.476C37.2273 13.8787 37.54 13.3747 37.932 12.964C38.324 12.5533 38.7813 12.2407 39.304 12.026C39.8267 11.8113 40.3773 11.704 40.956 11.704C41.544 11.704 42.0713 11.8253 42.538 12.068C43.0047 12.3013 43.392 12.5767 43.7 12.894L42.608 14.21C42.3747 13.9953 42.1273 13.8227 41.866 13.692C41.614 13.552 41.3247 13.482 40.998 13.482C40.69 13.482 40.396 13.552 40.116 13.692C39.8453 13.8227 39.6073 14.014 39.402 14.266C39.206 14.518 39.0473 14.826 38.926 15.19C38.814 15.554 38.758 15.9647 38.758 16.422C38.758 17.3647 38.9587 18.0973 39.36 18.62C39.7613 19.1333 40.298 19.39 40.97 19.39C41.3433 19.39 41.6747 19.3107 41.964 19.152C42.2627 18.984 42.524 18.7787 42.748 18.536L43.84 19.824C43.0747 20.72 42.09 21.168 40.886 21.168ZM48.0404 21.168C47.6018 21.168 47.1771 21.0887 46.7664 20.93C46.3558 20.762 45.9918 20.524 45.6744 20.216C45.3664 19.908 45.1191 19.53 44.9324 19.082C44.7458 18.6247 44.6524 18.1067 44.6524 17.528C44.6524 16.9493 44.7458 16.436 44.9324 15.988C45.1191 15.5307 45.3664 15.148 45.6744 14.84C45.9918 14.532 46.3558 14.2987 46.7664 14.14C47.1771 13.972 47.6018 13.888 48.0404 13.888C48.4791 13.888 48.8991 13.972 49.3004 14.14C49.7111 14.2987 50.0704 14.532 50.3784 14.84C50.6958 15.148 50.9478 15.5307 51.1344 15.988C51.3211 16.436 51.4144 16.9493 51.4144 17.528C51.4144 18.1067 51.3211 18.6247 51.1344 19.082C50.9478 19.53 50.6958 19.908 50.3784 20.216C50.0704 20.524 49.7111 20.762 49.3004 20.93C48.8991 21.0887 48.4791 21.168 48.0404 21.168ZM48.0404 19.502C48.4604 19.502 48.7778 19.3247 48.9924 18.97C49.2071 18.6153 49.3144 18.1347 49.3144 17.528C49.3144 16.9213 49.2071 16.4407 48.9924 16.086C48.7778 15.7313 48.4604 15.554 48.0404 15.554C47.6111 15.554 47.2891 15.7313 47.0744 16.086C46.8691 16.4407 46.7664 16.9213 46.7664 17.528C46.7664 18.1347 46.8691 18.6153 47.0744 18.97C47.2891 19.3247 47.6111 19.502 48.0404 19.502ZM52.8241 23.576V14.056H54.5041L54.6441 14.742H54.7001C54.9707 14.4993 55.2741 14.2987 55.6101 14.14C55.9554 13.972 56.3101 13.888 56.6741 13.888C57.0941 13.888 57.4721 13.972 57.8081 14.14C58.1441 14.308 58.4287 14.546 58.6621 14.854C58.8954 15.162 59.0727 15.5353 59.1941 15.974C59.3247 16.4033 59.3901 16.884 59.3901 17.416C59.3901 18.0133 59.3061 18.5453 59.1381 19.012C58.9794 19.4693 58.7601 19.8613 58.4801 20.188C58.2094 20.5053 57.8967 20.748 57.5421 20.916C57.1967 21.084 56.8374 21.168 56.4641 21.168C56.1654 21.168 55.8761 21.1073 55.5961 20.986C55.3161 20.8553 55.0547 20.6733 54.8121 20.44L54.8821 21.546V23.576H52.8241ZM55.9881 19.488C56.3427 19.488 56.6461 19.3293 56.8981 19.012C57.1501 18.6853 57.2761 18.1627 57.2761 17.444C57.2761 16.1933 56.8747 15.568 56.0721 15.568C55.6707 15.568 55.2741 15.778 54.8821 16.198V19.04C55.0687 19.208 55.2554 19.3247 55.4421 19.39C55.6287 19.4553 55.8107 19.488 55.9881 19.488ZM61.5101 23.716C61.2954 23.716 61.1134 23.702 60.9641 23.674C60.8147 23.6553 60.6701 23.6227 60.5301 23.576L60.8941 22.008C60.9594 22.0267 61.0341 22.0453 61.1181 22.064C61.2021 22.0827 61.2814 22.092 61.3561 22.092C61.7014 22.092 61.9674 22.008 62.1541 21.84C62.3407 21.672 62.4807 21.4527 62.5741 21.182L62.6721 20.818L59.9981 14.056H62.0701L63.0641 17.038C63.1667 17.3553 63.2601 17.6773 63.3441 18.004C63.4281 18.3307 63.5167 18.6667 63.6101 19.012H63.6661C63.7407 18.6853 63.8154 18.3587 63.8901 18.032C63.9741 17.696 64.0581 17.3647 64.1421 17.038L64.9821 14.056H66.9561L64.5481 21.07C64.3801 21.5087 64.2027 21.8913 64.0161 22.218C63.8387 22.554 63.6287 22.8293 63.3861 23.044C63.1527 23.268 62.8821 23.436 62.5741 23.548C62.2754 23.66 61.9207 23.716 61.5101 23.716Z" fill="white"/>
</svg>
