<svg width="20" height="14" viewBox="0 0 20 14" fill="none" xmlns="http://www.w3.org/2000/svg">
<path fill-rule="evenodd" clip-rule="evenodd" d="M20 1C20 0.447715 19.5523 0 19 0C18.4477 0 18 0.447715 18 1V13C18 13.5523 18.4477 14 19 14C19.5523 14 20 13.5523 20 13V1ZM5.2318 0.359841L5.31809 0.268465C5.68116 -0.070824 6.24857 -0.094563 6.64021 0.231804C7.06449 0.585368 7.12181 1.21593 6.76825 1.64021L3.1356 6L12.9979 6.02441L13.1146 6.03114C13.6119 6.0889 13.9979 6.51157 13.9979 7.02441C13.9979 7.57669 13.5502 8.02441 12.9979 8.02441L3.1356 8L6.76825 12.3598L6.84256 12.4612C7.11082 12.8795 7.03185 13.4419 6.64021 13.7682C6.24857 14.0946 5.68116 14.0709 5.31809 13.7316L5.2318 13.6402L0.231804 7.64021L0.191546 7.58895L0.12499 7.48463L0.0866795 7.40776L0.040793 7.28302L0.0158905 7.17758L0.00582845 7.1086L0 7.00048L0.00383441 6.91196L0.0156907 6.82273L0.0299063 6.75711L0.0517916 6.68164L0.0866816 6.59221L0.125022 6.51539L0.185606 6.41967L0.231804 6.35984L5.2318 0.359841Z" fill="#CCCCCC"/>
</svg>
