<svg width="24" height="24" viewBox="0 0 24 24" fill="none" xmlns="http://www.w3.org/2000/svg">
<path fill-rule="evenodd" clip-rule="evenodd" d="M5.6 6C5.33435 6 5.06146 6.12187 4.84743 6.3703C4.6314 6.62105 4.5 6.97513 4.5 7.35714V16.6429C4.5 17.0249 4.6314 17.379 4.84743 17.6297C5.06146 17.8781 5.33435 18 5.6 18H18.4C18.6656 18 18.9385 17.8781 19.1526 17.6297C19.3686 17.379 19.5 17.0249 19.5 16.6429V7.35714C19.5 6.97513 19.3686 6.62105 19.1526 6.3703C18.9385 6.12187 18.6656 6 18.4 6H5.6ZM4.08982 5.71759C4.47591 5.26945 5.01696 5 5.6 5H18.4C18.983 5 19.5241 5.26945 19.9102 5.71759C20.2943 6.16341 20.5 6.75407 20.5 7.35714V16.6429C20.5 17.2459 20.2943 17.8366 19.9102 18.2824C19.5241 18.7305 18.983 19 18.4 19H5.6C5.01696 19 4.47591 18.7305 4.08982 18.2824C3.70574 17.8366 3.5 17.2459 3.5 16.6429V7.35714C3.5 6.75407 3.70574 6.16341 4.08982 5.71759Z" fill="black"/>
<path fill-rule="evenodd" clip-rule="evenodd" d="M11.52 18L11.52 5L12.52 5L12.52 18L11.52 18Z" fill="black"/>
<path fill-rule="evenodd" clip-rule="evenodd" d="M4 11.5L20 11.5V12.5L4 12.5V11.5Z" fill="black"/>
<path fill-rule="evenodd" clip-rule="evenodd" d="M15.9083 8.45414C15.6553 8.45414 15.4542 8.65725 15.4542 8.90432C15.4542 9.16191 15.6579 9.36244 15.9083 9.36244C16.1641 9.36244 16.3625 9.16452 16.3625 8.90432C16.3625 8.65465 16.1667 8.45414 15.9083 8.45414ZM14.5459 8.90432C14.5459 8.15187 15.1574 7.54584 15.9083 7.54584C16.6698 7.54584 17.2708 8.15447 17.2708 8.90432C17.2708 9.65952 16.6724 10.2707 15.9083 10.2707C15.1549 10.2707 14.5459 9.66213 14.5459 8.90432Z" fill="black"/>
<path fill-rule="evenodd" clip-rule="evenodd" d="M7.90829 8.45414C7.65528 8.45414 7.45414 8.65725 7.45414 8.90432C7.45414 9.16191 7.65787 9.36244 7.90829 9.36244C8.16408 9.36244 8.36244 9.16452 8.36244 8.90432C8.36244 8.65465 8.16666 8.45414 7.90829 8.45414ZM6.54584 8.90432C6.54584 8.15187 7.15739 7.54584 7.90829 7.54584C8.66976 7.54584 9.27074 8.15447 9.27074 8.90432C9.27074 9.65952 8.67234 10.2707 7.90829 10.2707C7.1548 10.2707 6.54584 9.66213 6.54584 8.90432Z" fill="black"/>
<path fill-rule="evenodd" clip-rule="evenodd" d="M14.5302 11.5C14.8587 11.0313 15.403 10.7249 16.0188 10.7249C16.6346 10.7249 17.1788 11.0313 17.5074 11.5H18.5376C18.1285 10.5118 17.1548 9.81659 16.0188 9.81659C14.8827 9.81659 13.9091 10.5118 13.5 11.5H14.5302Z" fill="black"/>
<path fill-rule="evenodd" clip-rule="evenodd" d="M6.28216 11.5C6.6107 11.0313 7.15492 10.725 7.77071 10.725C8.3865 10.725 8.93073 11.0313 9.25926 11.5H10.2895C9.8804 10.5118 8.90674 9.81665 7.77071 9.81665C6.63469 9.81665 5.66103 10.5118 5.25195 11.5H6.28216Z" fill="black"/>
<path fill-rule="evenodd" clip-rule="evenodd" d="M15.9083 14.9541C15.6553 14.9541 15.4542 15.1573 15.4542 15.4043C15.4542 15.6619 15.6579 15.8624 15.9083 15.8624C16.1641 15.8624 16.3625 15.6645 16.3625 15.4043C16.3625 15.1546 16.1667 14.9541 15.9083 14.9541ZM14.5459 15.4043C14.5459 14.6519 15.1574 14.0458 15.9083 14.0458C16.6698 14.0458 17.2708 14.6545 17.2708 15.4043C17.2708 16.1595 16.6724 16.7707 15.9083 16.7707C15.1549 16.7707 14.5459 16.1621 14.5459 15.4043Z" fill="black"/>
<path fill-rule="evenodd" clip-rule="evenodd" d="M7.90829 14.9541C7.65528 14.9541 7.45414 15.1573 7.45414 15.4043C7.45414 15.6619 7.65787 15.8624 7.90829 15.8624C8.16408 15.8624 8.36244 15.6645 8.36244 15.4043C8.36244 15.1546 8.16666 14.9541 7.90829 14.9541ZM6.54584 15.4043C6.54584 14.6519 7.15739 14.0458 7.90829 14.0458C8.66976 14.0458 9.27074 14.6545 9.27074 15.4043C9.27074 16.1595 8.67234 16.7707 7.90829 16.7707C7.1548 16.7707 6.54584 16.1621 6.54584 15.4043Z" fill="black"/>
<path fill-rule="evenodd" clip-rule="evenodd" d="M14.5302 18C14.8587 17.5313 15.403 17.2249 16.0188 17.2249C16.6346 17.2249 17.1788 17.5313 17.5074 18H18.5376C18.1285 17.0118 17.1548 16.3166 16.0188 16.3166C14.8827 16.3166 13.9091 17.0118 13.5 18H14.5302Z" fill="black"/>
<path fill-rule="evenodd" clip-rule="evenodd" d="M6.28216 18C6.6107 17.5313 7.15492 17.225 7.77071 17.225C8.3865 17.225 8.93073 17.5313 9.25926 18H10.2895C9.8804 17.0118 8.90674 16.3167 7.77071 16.3167C6.63469 16.3167 5.66103 17.0118 5.25195 18H6.28216Z" fill="black"/>
</svg>
