<svg width="20" height="14" viewBox="0 0 20 14" fill="none" xmlns="http://www.w3.org/2000/svg">
<path fill-rule="evenodd" clip-rule="evenodd" d="M0 1C0 0.447715 0.447716 0 1 0C1.55228 0 2 0.447715 2 1V13C2 13.5523 1.55229 14 1 14C0.447716 14 0 13.5523 0 13V1ZM14.7682 0.359841L14.6819 0.268465C14.3188 -0.070824 13.7514 -0.094563 13.3598 0.231804C12.9355 0.585368 12.8782 1.21593 13.2318 1.64021L16.8644 6L7.00206 6.02441L6.88544 6.03114C6.3881 6.0889 6.00206 6.51157 6.00206 7.02441C6.00206 7.57669 6.44977 8.02441 7.00206 8.02441L16.8644 8L13.2318 12.3598L13.1574 12.4612C12.8892 12.8795 12.9682 13.4419 13.3598 13.7682C13.7514 14.0946 14.3188 14.0709 14.6819 13.7316L14.7682 13.6402L19.7682 7.64021L19.8085 7.58895L19.875 7.48463L19.9133 7.40776L19.9592 7.28302L19.9841 7.17758L19.9942 7.1086L20 7.00048L19.9962 6.91196L19.9843 6.82273L19.9701 6.75711L19.9482 6.68164L19.9133 6.59221L19.875 6.51539L19.8144 6.41967L19.7682 6.35984L14.7682 0.359841Z" fill="#CCCCCC"/>
</svg>
