<svg width="24" height="24" viewBox="0 0 24 24" fill="none" xmlns="http://www.w3.org/2000/svg">
<path d="M19.9811 5.19442C19.9465 4.55887 19.441 4.05346 18.8054 4.01878C17.523 3.94872 15.0135 4.01687 12.6139 5.25802C11.3907 5.89076 10.0969 6.96353 9.06446 8.20127C9.05174 8.21652 9.03937 8.23186 9.02674 8.24714L6.68364 8.42814C6.29796 8.45795 5.95443 8.66011 5.74112 8.98273L4.14257 11.4006C3.98079 11.6453 3.95507 11.9515 4.07373 12.2197C4.19241 12.4879 4.43628 12.6749 4.72613 12.7198L6.7002 13.0255C6.69323 13.0639 6.68623 13.1023 6.67983 13.1406C6.61411 13.5337 6.74436 13.9379 7.02829 14.2218L9.77802 16.9716C10.0134 17.207 10.3315 17.3368 10.6574 17.3368C10.7246 17.3368 10.7921 17.3312 10.8593 17.32C10.8976 17.3136 10.936 17.3066 10.9743 17.2997L11.2801 19.2738C11.325 19.5636 11.5119 19.8075 11.7801 19.9262C11.8917 19.9755 12.0098 19.9999 12.1274 19.9999C12.2925 19.9999 12.4564 19.9518 12.5993 19.8573L15.0171 18.2588C15.3398 18.0454 15.5419 17.7019 15.5716 17.3162L15.7526 14.9732C15.7679 14.9605 15.7833 14.9482 15.7986 14.9355C17.0363 13.903 18.1091 12.6093 18.7418 11.386C19.983 8.98626 20.0511 6.47675 19.9811 5.19442ZM14.5001 17.4767L12.1873 19.0059L11.8893 17.082C12.8668 16.7946 13.8337 16.3343 14.7549 15.7176L14.637 17.244C14.6297 17.3392 14.5798 17.4241 14.5001 17.4767ZM10.4409 16.3087L7.69116 13.5589C7.62101 13.4888 7.58857 13.3902 7.60447 13.2952C7.68622 12.8064 7.81325 12.341 7.9705 11.9026L12.0963 16.0285C11.5698 16.2171 11.0983 16.3296 10.7047 16.3954C10.6095 16.4112 10.5111 16.3788 10.4409 16.3087ZM6.75586 9.36285L8.28222 9.24495C7.66554 10.1662 7.20523 11.1331 6.91782 12.1106L4.99397 11.8126L6.52314 9.49979C6.57583 9.4201 6.66067 9.3702 6.75586 9.36285ZM15.1981 14.2155C14.4408 14.8471 13.7058 15.304 13.0282 15.6346L8.36509 10.9715C8.79815 10.087 9.32668 9.35048 9.78436 8.80179C10.7398 7.65634 11.9282 6.66819 13.0447 6.0907C15.247 4.95155 17.5673 4.89021 18.7544 4.95483C18.9115 4.96339 19.0365 5.08836 19.0451 5.24552C19.1098 6.43263 19.0483 8.75292 17.9092 10.9552C17.3317 12.0717 16.3435 13.26 15.1981 14.2155Z" fill="black"/>
<path d="M14.96 11.3825C15.5601 11.3825 16.1604 11.154 16.6172 10.6972C17.0599 10.2546 17.3036 9.666 17.3036 9.04001C17.3036 8.41401 17.0599 7.82545 16.6172 7.3828C15.7034 6.46897 14.2165 6.46903 13.3028 7.3828C12.8601 7.82545 12.6163 8.41401 12.6163 9.04001C12.6163 9.666 12.8601 10.2546 13.3028 10.6972C13.7597 11.1541 14.3597 11.3826 14.96 11.3825ZM13.9656 8.04567C14.2398 7.77152 14.5998 7.63446 14.9599 7.63446C15.3201 7.63446 15.6801 7.77152 15.9543 8.04567C16.2199 8.31126 16.3661 8.66438 16.3661 9.03997C16.3661 9.41556 16.2199 9.76872 15.9543 10.0343C15.406 10.5826 14.5139 10.5826 13.9656 10.0343C13.7 9.76872 13.5537 9.4156 13.5537 9.04001C13.5537 8.66442 13.7 8.31126 13.9656 8.04567Z" fill="black"/>
<path d="M4.47819 17.1855C4.59816 17.1855 4.71813 17.1397 4.80962 17.0482L6.34002 15.5178C6.52308 15.3347 6.52308 15.0379 6.34002 14.8549C6.15699 14.6718 5.86018 14.6718 5.67712 14.8549L4.14676 16.3853C3.9637 16.5683 3.9637 16.8651 4.14676 17.0482C4.23826 17.1397 4.35822 17.1855 4.47819 17.1855Z" fill="black"/>
<path d="M7.74254 16.2575C7.55951 16.0745 7.2627 16.0745 7.07964 16.2575L4.13736 19.1999C3.9543 19.3829 3.9543 19.6797 4.13736 19.8627C4.22889 19.9543 4.34882 20 4.46879 20C4.58876 20 4.70873 19.9543 4.80023 19.8627L7.74251 16.9204C7.9256 16.7374 7.9256 16.4406 7.74254 16.2575Z" fill="black"/>
<path d="M8.48214 17.6599L6.95175 19.1903C6.76869 19.3734 6.76869 19.6702 6.95175 19.8532C7.04328 19.9448 7.16325 19.9905 7.28318 19.9905C7.40312 19.9905 7.52312 19.9448 7.61462 19.8532L9.14501 18.3228C9.32807 18.1398 9.32807 17.843 9.14501 17.6599C8.96198 17.4769 8.66517 17.4769 8.48214 17.6599Z" fill="black"/>
</svg>
