<svg width="24" height="24" viewBox="0 0 24 24" fill="none" xmlns="http://www.w3.org/2000/svg">
<path fill-rule="evenodd" clip-rule="evenodd" d="M11.7133 3.59038C11.8854 3.46987 12.1146 3.46987 12.2867 3.59038L20.2867 9.19038C20.4204 9.28395 20.5 9.43684 20.5 9.6V18.4C20.5 18.975 20.2457 19.5142 19.8138 19.903C19.3836 20.2902 18.8103 20.5 18.2222 20.5H5.77778C5.18968 20.5 4.61644 20.2902 4.18622 19.903C3.75425 19.5142 3.5 18.975 3.5 18.4V9.6C3.5 9.43684 3.57961 9.28395 3.71327 9.19038L11.7133 3.59038ZM4.5 9.86033V18.4C4.5 18.6737 4.62035 18.9484 4.85518 19.1597C5.09175 19.3726 5.42288 19.5 5.77778 19.5H18.2222C18.5771 19.5 18.9083 19.3726 19.1448 19.1597C19.3796 18.9484 19.5 18.6737 19.5 18.4V9.86033L12 4.61033L4.5 9.86033Z" fill="black"/>
<path fill-rule="evenodd" clip-rule="evenodd" d="M8.83331 12C8.83331 11.7239 9.05717 11.5 9.33331 11.5H14.6666C14.9428 11.5 15.1666 11.7239 15.1666 12V20C15.1666 20.2761 14.9428 20.5 14.6666 20.5C14.3905 20.5 14.1666 20.2761 14.1666 20V12.5H9.83331V20C9.83331 20.2761 9.60946 20.5 9.33331 20.5C9.05717 20.5 8.83331 20.2761 8.83331 20V12Z" fill="black"/>
</svg>
