<svg width="24" height="24" viewBox="0 0 24 24" fill="none" xmlns="http://www.w3.org/2000/svg">
<path fill-rule="evenodd" clip-rule="evenodd" d="M5.59998 5.5C5.31076 5.5 5.0318 5.61661 4.82489 5.82675C4.61772 6.03716 4.49998 6.32415 4.49998 6.625V8.25C4.49998 8.52614 4.27612 8.75 3.99998 8.75C3.72384 8.75 3.49998 8.52614 3.49998 8.25V6.625C3.49998 6.06389 3.71937 5.52424 4.11232 5.12515C4.50553 4.7258 5.0405 4.5 5.59998 4.5H18.4C18.9595 4.5 19.4944 4.7258 19.8876 5.12515C20.2806 5.52424 20.5 6.06389 20.5 6.625V16.375C20.5 16.9361 20.2806 17.4758 19.8876 17.8749C19.4944 18.2742 18.9595 18.5 18.4 18.5H13.6C13.3238 18.5 13.1 18.2761 13.1 18C13.1 17.7239 13.3238 17.5 13.6 17.5H18.4C18.6892 17.5 18.9682 17.3834 19.1751 17.1732C19.3822 16.9628 19.5 16.6758 19.5 16.375V6.625C19.5 6.32415 19.3822 6.03716 19.1751 5.82675C18.9682 5.61661 18.6892 5.5 18.4 5.5H5.59998ZM3.50314 11.4845C3.53413 11.2101 3.7817 11.0128 4.0561 11.0438C5.79551 11.2403 7.41598 12.0319 8.65155 13.2868C9.88698 14.5415 10.6642 16.1847 10.857 17.9456C10.8871 18.2201 10.6889 18.467 10.4144 18.497C10.1399 18.5271 9.89301 18.3289 9.86295 18.0544C9.6944 16.5153 9.0153 15.0815 7.93899 13.9884C6.86281 12.8954 5.45371 12.208 3.94386 12.0375C3.66946 12.0065 3.47214 11.7589 3.50314 11.4845ZM3.51037 14.7298C3.56638 14.4594 3.83099 14.2856 4.10139 14.3416C4.96766 14.5211 5.76178 14.9551 6.38537 15.5884C7.00887 16.2216 7.43441 17.0262 7.61019 17.9016C7.66456 18.1723 7.48915 18.4358 7.21842 18.4902C6.94768 18.5446 6.68413 18.3692 6.62976 18.0984C6.49199 17.4123 6.1588 16.7836 5.6728 16.29C5.18688 15.7965 4.56973 15.4599 3.89857 15.3209C3.62816 15.2648 3.45436 15.0002 3.51037 14.7298Z" fill="black"/>
<path d="M4 17.9999H4.00833" stroke="black" stroke-linecap="round" stroke-linejoin="round"/>
</svg>
