<svg width="24" height="24" viewBox="0 0 24 24" fill="none" xmlns="http://www.w3.org/2000/svg">
<path fill-rule="evenodd" clip-rule="evenodd" d="M3.5 5C3.5 4.17157 4.17157 3.5 5 3.5H9.4C10.2284 3.5 10.9 4.17157 10.9 5V9.4C10.9 10.2284 10.2284 10.9 9.4 10.9H5C4.17157 10.9 3.5 10.2284 3.5 9.4V5ZM5 4.5C4.72386 4.5 4.5 4.72386 4.5 5V9.4C4.5 9.67614 4.72386 9.9 5 9.9H9.4C9.67614 9.9 9.9 9.67614 9.9 9.4V5C9.9 4.72386 9.67614 4.5 9.4 4.5H5Z" fill="black"/>
<path fill-rule="evenodd" clip-rule="evenodd" d="M3.5 14.6C3.5 13.7715 4.17157 13.1 5 13.1H9.4C10.2284 13.1 10.9 13.7715 10.9 14.6V19C10.9 19.8284 10.2284 20.5 9.4 20.5H5C4.17157 20.5 3.5 19.8284 3.5 19V14.6ZM5 14.1C4.72386 14.1 4.5 14.3238 4.5 14.6V19C4.5 19.2761 4.72386 19.5 5 19.5H9.4C9.67614 19.5 9.9 19.2761 9.9 19V14.6C9.9 14.3238 9.67614 14.1 9.4 14.1H5Z" fill="black"/>
<path fill-rule="evenodd" clip-rule="evenodd" d="M13.1 5C13.1 4.17157 13.7715 3.5 14.6 3.5H19C19.8284 3.5 20.5 4.17157 20.5 5V9.4C20.5 10.2284 19.8284 10.9 19 10.9H14.6C13.7715 10.9 13.1 10.2284 13.1 9.4V5ZM14.6 4.5C14.3238 4.5 14.1 4.72386 14.1 5V9.4C14.1 9.67614 14.3238 9.9 14.6 9.9H19C19.2761 9.9 19.5 9.67614 19.5 9.4V5C19.5 4.72386 19.2761 4.5 19 4.5H14.6Z" fill="black"/>
<path fill-rule="evenodd" clip-rule="evenodd" d="M13.1 14.6C13.1 13.7715 13.7715 13.1 14.6 13.1H19C19.8284 13.1 20.5 13.7715 20.5 14.6V19C20.5 19.8284 19.8284 20.5 19 20.5H14.6C13.7715 20.5 13.1 19.8284 13.1 19V14.6ZM14.6 14.1C14.3238 14.1 14.1 14.3238 14.1 14.6V19C14.1 19.2761 14.3238 19.5 14.6 19.5H19C19.2761 19.5 19.5 19.2761 19.5 19V14.6C19.5 14.3238 19.2761 14.1 19 14.1H14.6Z" fill="black"/>
</svg>
