<svg width="24" height="24" viewBox="0 0 24 24" fill="none" xmlns="http://www.w3.org/2000/svg">
<path fill-rule="evenodd" clip-rule="evenodd" d="M5.6 5.5C5.33435 5.5 5.06146 5.62187 4.84743 5.8703C4.6314 6.12105 4.5 6.47513 4.5 6.85714V16.1429C4.5 16.5249 4.6314 16.879 4.84743 17.1297C5.06146 17.3781 5.33435 17.5 5.6 17.5H18.4C18.6656 17.5 18.9385 17.3781 19.1526 17.1297C19.3686 16.879 19.5 16.5249 19.5 16.1429V6.85714C19.5 6.47513 19.3686 6.12105 19.1526 5.8703C18.9385 5.62187 18.6656 5.5 18.4 5.5H5.6ZM4.08982 5.21759C4.47591 4.76945 5.01696 4.5 5.6 4.5H18.4C18.983 4.5 19.5241 4.76945 19.9102 5.21759C20.2943 5.66341 20.5 6.25407 20.5 6.85714V16.1429C20.5 16.7459 20.2943 17.3366 19.9102 17.7824C19.5241 18.2305 18.983 18.5 18.4 18.5H5.6C5.01696 18.5 4.47591 18.2305 4.08982 17.7824C3.70574 17.3366 3.5 16.7459 3.5 16.1429V6.85714C3.5 6.25407 3.70574 5.66341 4.08982 5.21759Z" fill="#006efa"/>
<path fill-rule="evenodd" clip-rule="evenodd" d="M10.35 14.5C10.0738 14.5 9.84998 14.2761 9.84998 14L9.84998 11C9.84997 10.7239 10.0738 10.5 10.35 10.5C10.6261 10.5 10.85 10.7239 10.85 11L10.85 14C10.85 14.2761 10.6261 14.5 10.35 14.5Z" fill="#006efa"/>
<path fill-rule="evenodd" clip-rule="evenodd" d="M7.34998 14.5C7.07383 14.5 6.84998 14.2761 6.84998 14L6.84997 9C6.84997 8.72386 7.07383 8.5 7.34997 8.5C7.62612 8.5 7.84997 8.72386 7.84997 9L7.84998 14C7.84998 14.2761 7.62612 14.5 7.34998 14.5Z" fill="#006efa"/>
<path fill-rule="evenodd" clip-rule="evenodd" d="M13.35 14.5C13.0738 14.5 12.85 14.2761 12.85 14L12.85 9C12.85 8.72386 13.0738 8.5 13.35 8.5C13.6261 8.5 13.85 8.72386 13.85 9L13.85 14C13.85 14.2761 13.6261 14.5 13.35 14.5Z" fill="#006efa"/>
<path fill-rule="evenodd" clip-rule="evenodd" d="M16.35 14.5C16.0738 14.5 15.85 14.2761 15.85 14L15.85 11C15.85 10.7239 16.0738 10.5 16.35 10.5C16.6261 10.5 16.85 10.7239 16.85 11L16.85 14C16.85 14.2761 16.6261 14.5 16.35 14.5Z" fill="#006efa"/>
</svg>
