<svg width="24" height="24" viewBox="0 0 24 24" fill="none" xmlns="http://www.w3.org/2000/svg">
<path d="M11.1956 9.34803C11.2246 9.34803 11.2608 9.35492 11.2898 9.36871L13.0145 10.2307C13.1594 10.2997 13.1594 10.4928 13.0145 10.5686L11.2898 11.4237C11.2608 11.4375 11.2246 11.4444 11.1956 11.4444C11.0942 11.4444 11 11.3617 11 11.2582V9.53422C11 9.42388 11.0942 9.34803 11.1956 9.34803ZM11.1956 8.43774C10.5579 8.43774 10.0435 8.92737 10.0435 9.53422V11.2582C10.0435 11.8651 10.5579 12.3547 11.1956 12.3547C11.384 12.3547 11.5652 12.3133 11.7319 12.2306L13.4565 11.3686C13.8333 11.1755 14.0724 10.8031 14.0724 10.3962C14.0724 9.98936 13.8333 9.61697 13.4565 9.42388L11.7391 8.56187C11.5652 8.47912 11.384 8.43774 11.1956 8.43774Z" fill="#006efa"/>
<path fill-rule="evenodd" clip-rule="evenodd" d="M9 15.3867C9 15.1147 9.22145 14.8911 9.5 14.8911C9.78446 14.8911 10 15.1119 10 15.3867C10 15.6732 9.78162 15.8911 9.5 15.8911C9.2243 15.8911 9 15.6703 9 15.3867ZM8.05458 15.7918C8.0461 15.7922 8.03756 15.7924 8.02898 15.7924L7.02173 15.7924C6.74559 15.7924 6.52173 15.5686 6.52173 15.2924C6.52173 15.0163 6.74559 14.7924 7.02173 14.7924L8.02898 14.7924C8.05985 14.7924 8.09007 14.7952 8.11939 14.8006C8.34822 14.265 8.88112 13.8911 9.5 13.8911C10.1219 13.8911 10.6465 14.2598 10.876 14.7872H17.0942C17.3703 14.7872 17.5942 15.011 17.5942 15.2872C17.5942 15.5633 17.3703 15.7872 17.0942 15.7872H10.9472C10.7752 16.4239 10.2009 16.8911 9.5 16.8911C8.81011 16.8911 8.23027 16.4277 8.05458 15.7918Z" fill="#006efa"/>
<path fill-rule="evenodd" clip-rule="evenodd" d="M5.6 6C5.33435 6 5.06146 6.12187 4.84743 6.3703C4.6314 6.62105 4.5 6.97513 4.5 7.35714V16.6429C4.5 17.0249 4.6314 17.379 4.84743 17.6297C5.06146 17.8781 5.33435 18 5.6 18H18.4C18.6656 18 18.9385 17.8781 19.1526 17.6297C19.3686 17.379 19.5 17.0249 19.5 16.6429V7.35714C19.5 6.97513 19.3686 6.62105 19.1526 6.3703C18.9385 6.12187 18.6656 6 18.4 6H5.6ZM4.08982 5.71759C4.47591 5.26945 5.01696 5 5.6 5H18.4C18.983 5 19.5241 5.26945 19.9102 5.71759C20.2943 6.16341 20.5 6.75407 20.5 7.35714V16.6429C20.5 17.2459 20.2943 17.8366 19.9102 18.2824C19.5241 18.7305 18.983 19 18.4 19H5.6C5.01696 19 4.47591 18.7305 4.08982 18.2824C3.70574 17.8366 3.5 17.2459 3.5 16.6429V7.35714C3.5 6.75407 3.70574 6.16341 4.08982 5.71759Z" fill="#006efa"/>
</svg>
