<svg width="24" height="24" viewBox="0 0 24 24" fill="none" xmlns="http://www.w3.org/2000/svg">
<path fill-rule="evenodd" clip-rule="evenodd" d="M11.7764 3.55279C11.9172 3.4824 12.0828 3.4824 12.2236 3.55279L20.2236 7.55279C20.393 7.63748 20.5 7.81061 20.5 8C20.5 8.18939 20.393 8.36252 20.2236 8.44721L12.2236 12.4472C12.0828 12.5176 11.9172 12.5176 11.7764 12.4472L3.77639 8.44721C3.607 8.36252 3.5 8.18939 3.5 8C3.5 7.81061 3.607 7.63748 3.77639 7.55279L11.7764 3.55279ZM5.11803 8L12 11.441L18.882 8L12 4.55902L5.11803 8Z" fill="black"/>
<path fill-rule="evenodd" clip-rule="evenodd" d="M3.55277 15.7764C3.67627 15.5294 3.97661 15.4293 4.22359 15.5528L12 19.441L19.7764 15.5528C20.0234 15.4293 20.3237 15.5294 20.4472 15.7764C20.5707 16.0234 20.4706 16.3237 20.2236 16.4472L12.2236 20.4472C12.0828 20.5176 11.9171 20.5176 11.7764 20.4472L3.77638 16.4472C3.52939 16.3237 3.42928 16.0234 3.55277 15.7764Z" fill="black"/>
<path fill-rule="evenodd" clip-rule="evenodd" d="M3.55277 11.7764C3.67627 11.5294 3.9766 11.4293 4.22359 11.5528L12 15.441L19.7764 11.5528C20.0234 11.4293 20.3237 11.5294 20.4472 11.7764C20.5707 12.0234 20.4706 12.3237 20.2236 12.4472L12.2236 16.4472C12.0828 16.5176 11.9171 16.5176 11.7764 16.4472L3.77638 12.4472C3.52939 12.3237 3.42928 12.0234 3.55277 11.7764Z" fill="black"/>
</svg>
